<svg width="86" height="87" viewBox="0 0 86 87" fill="none" xmlns="http://www.w3.org/2000/svg">
<path d="M67.6645 34.8653C66.5693 31.8841 63.7582 29.9062 60.6138 29.9062C57.3284 29.9062 54.4232 32.0636 53.4382 35.2336L48.5456 50.9806C49.3438 52.9286 50.3032 54.375 51.7263 54.375C56.0935 54.375 56.0935 40.7812 60.4593 40.7812C64.8292 40.7812 64.8292 54.375 69.1991 54.375C70.9997 54.375 72.0572 52.0681 72.9857 49.3548L67.6645 34.8653Z" fill="#F19116"/>
<path d="M25.5312 21.75C25.5312 17.7494 28.3813 14.4284 32.1371 13.7338L32.1412 13.7283C31.5714 10.5596 28.8288 8.15625 25.5312 8.15625C24.9319 8.15625 24.3635 8.26092 23.8099 8.40909C22.7766 5.10989 19.7276 2.71875 16.125 2.71875C11.6718 2.71875 8.0625 6.37003 8.0625 10.875C8.0625 11.3385 8.10012 11.7939 8.17403 12.2357L8.18478 12.2466C8.14312 12.2452 8.10416 12.2344 8.0625 12.2344C5.09416 12.2344 2.6875 14.669 2.6875 17.6719C2.6875 20.6747 5.09416 23.1094 8.0625 23.1094H25.6441L25.6508 23.0999C25.5783 22.6594 25.5312 22.2108 25.5312 21.75Z" fill="url(#paint0_linear)"/>
<path d="M68.9236 34.3922C67.7814 31.2806 65.0079 29.0879 61.8125 28.6407V19.9883L83.1459 12.2806L62.0624 4.07812H59.125V28.676C55.8772 29.2279 53.1722 31.5592 52.1563 34.8258L45.3946 56.5908C44.9713 55.1607 44.1005 53.887 42.8737 53.0007L36.4412 48.353L38.7027 38.0625H42.5673C46.6604 38.0625 50.3436 35.7638 52.1778 32.0609L57.2894 21.7473C57.6119 21.0989 57.7812 20.3716 57.7812 19.6457C57.7812 17.0574 55.7011 14.9531 53.0983 14.9531C51.3312 14.9531 49.7403 15.9468 48.9501 17.5468L44.6273 26.293C43.9406 27.6837 42.5592 28.5469 41.022 28.5469H40.1647C41.9116 26.8178 43 24.4117 43 21.75C43 16.5028 38.7806 12.2344 33.5938 12.2344C28.4069 12.2344 24.1875 16.5028 24.1875 21.75C24.1875 24.4117 25.2759 26.8178 27.0228 28.5469H26.3214C21.2259 28.5469 16.4032 31.2738 13.7331 35.6632L7.38391 46.1005C6.94853 46.8142 6.71875 47.6366 6.71875 48.478C6.71875 49.1251 6.8585 49.7395 7.10172 50.2969H1.34375V69.3281H18.3637L16.2876 78.0023C16.1801 78.455 16.125 78.9185 16.125 79.3807V79.7776C16.125 83.0102 18.7252 85.6406 21.9193 85.6406C24.643 85.6406 27.0282 83.6831 27.5899 80.9861L31.9772 59.9036L34.9375 61.8991V74.7656C34.9375 77.7644 37.3482 80.2031 40.3125 80.2031H84.6562V77.2397L68.9236 34.3922ZM61.8125 6.89339L75.4166 12.1868L61.8125 17.1023V6.89339ZM26.875 21.75C26.875 18.0022 29.889 14.9531 33.5938 14.9531C37.2985 14.9531 40.3125 18.0022 40.3125 21.75C40.3125 25.4978 37.2985 28.5469 33.5938 28.5469C29.889 28.5469 26.875 25.4978 26.875 21.75ZM21.5618 50.2969H15.8858L22.5347 39.7264C22.8612 39.2071 23.3047 38.7911 23.818 38.5057L21.5618 50.2969ZM22.0133 53.0156L21.9596 53.1257C20.335 56.4113 17.0697 58.4531 13.4375 58.4531C9.80534 58.4531 6.54003 56.4113 4.91678 53.1257L4.86169 53.0156H11.2042H11.7121H22.0133ZM4.03125 56.6615C6.31831 59.4822 9.718 61.1719 13.4375 61.1719C17.157 61.1719 20.5567 59.4822 22.8438 56.6615V66.6094H4.03125V56.6615ZM37.625 74.7656V61.8991C37.625 60.9884 37.1775 60.1428 36.4277 59.6371L32.6572 57.0938H29.8165L24.9615 80.4261C24.6592 81.8724 23.3799 82.9219 21.9193 82.9219C20.2073 82.9219 18.8125 81.5108 18.8125 79.779V79.3821C18.8125 79.1333 18.8421 78.8845 18.8998 78.6426L21.1291 69.3281H25.5312V50.2969H24.299L27.1599 35.3438H25.5312C23.3866 35.3438 21.418 36.4367 20.2678 38.2664L13.2306 49.4541C12.8973 49.9829 12.3302 50.2969 11.7121 50.2969H11.2042C10.2138 50.2969 9.40625 49.4799 9.40625 48.478C9.40625 48.1409 9.49763 47.8119 9.67231 47.5251L16.0215 37.0878C18.2065 33.4964 22.1531 31.2656 26.3214 31.2656H41.022C43.5832 31.2656 45.8864 29.826 47.0312 27.5083L51.3541 18.7621C51.686 18.0906 52.3552 17.6719 53.1426 17.6719C54.2176 17.6719 55.0938 18.5568 55.0938 19.6457C55.0938 19.9515 55.0225 20.2574 54.8868 20.5293L49.7752 30.8429C48.4005 33.6187 45.6378 35.3438 42.5687 35.3438H36.5473L33.4325 49.5207L41.3122 55.2137C42.3684 55.9777 43 57.2188 43 58.5333V74.7656C43 76.265 41.7947 77.4844 40.3125 77.4844C38.8303 77.4844 37.625 76.265 37.625 74.7656ZM44.9404 77.4844C45.4026 76.681 45.6875 75.7607 45.6875 74.7656V64.7171L54.7202 35.6401C55.5345 33.0233 57.9022 31.2656 60.6139 31.2656C63.1831 31.2656 65.5105 32.9023 66.4054 35.3397L81.8787 77.4844H44.9404Z" fill="#F8B41D"/>
<path d="M75.25 72.0469H77.9375V74.7656H75.25V72.0469Z" fill="#F8B41D"/>
<path d="M69.875 72.0469H72.5625V74.7656H69.875V72.0469Z" fill="#F8B41D"/>
<path d="M64.5 72.0469H67.1875V74.7656H64.5V72.0469Z" fill="#F8B41D"/>
<defs>
<linearGradient id="paint0_linear" x1="8.44172" y1="5.87117" x2="17.5778" y2="23.0223" gradientUnits="userSpaceOnUse">
<stop stop-color="white"/>
<stop offset="1" stop-color="white" stop-opacity="0"/>
</linearGradient>
</defs>
</svg>
