<svg width="67" height="67" viewBox="0 0 67 67" fill="none" xmlns="http://www.w3.org/2000/svg">
<path d="M15.7031 33.4999C15.7031 30.1804 16.6177 27.0708 18.2066 24.4082V13.114H6.91238C2.4298 18.9357 0 26.0308 0 33.4999C0 40.9691 2.4298 48.0642 6.91238 53.8859H18.2066V42.5917C16.6177 39.9291 15.7031 36.8195 15.7031 33.4999Z" fill="#FBBD00"/>
<path d="M33.5 51.2969L25.6484 59.1485L33.5 67C40.9693 67 48.0643 64.5702 53.8859 60.0877V48.8055H42.6038C39.9179 50.4001 36.7952 51.2969 33.5 51.2969Z" fill="#0F9D58"/>
<path d="M18.2066 42.5917L6.91238 53.8859C7.79987 55.0385 8.76627 56.1423 9.81197 57.1881C16.1393 63.5153 24.5518 67 33.5 67V51.2968C27.0062 51.2968 21.3148 47.8003 18.2066 42.5917Z" fill="#31AA52"/>
<path d="M67 33.5C67 31.4619 66.8155 29.42 66.4514 27.4312L66.1569 25.8217H33.5V41.5248H49.3931C47.8498 44.5949 45.4768 47.0997 42.6036 48.8056L53.8858 60.0878C55.0384 59.2003 56.1422 58.2339 57.188 57.1882C63.5153 50.8607 67 42.4482 67 33.5Z" fill="#3C79E6"/>
<path d="M46.0844 20.9156L47.4722 22.3035L58.5761 11.1999L57.1882 9.81197C50.8608 3.48465 42.4483 0 33.5 0L25.6484 7.85156L33.5 15.7031C38.2536 15.7031 42.7228 17.5543 46.0844 20.9156Z" fill="#CF2D48"/>
<path d="M33.5 15.7031V0C24.5518 0 16.1393 3.48465 9.81181 9.81184C8.76612 10.8575 7.79972 11.9613 6.91223 13.1141L18.2064 24.4083C21.3147 19.1997 27.0062 15.7031 33.5 15.7031Z" fill="#EB4132"/>
</svg>
