<svg width="866" height="668" viewBox="0 0 866 668" fill="none" xmlns="http://www.w3.org/2000/svg">
<g clip-path="url(#clip0)">
<path d="M858.949 399.73C843.963 357.965 820.36 345.257 797.92 318.475C770.501 285.756 752.029 261.981 759.13 219.888C770.754 151.115 775.732 -20.3885 593.632 2.02222C528.358 10.0567 476.781 60.0575 439.279 109.983C407.362 152.454 349.922 156.194 303.702 166.098C246.894 178.276 189.049 196.644 136.511 223.577C28.2772 279.035 -4.04396 358.749 0.378407 460.772C1.71775 491.596 6.0643 540.131 58.1471 596.928C128.425 673.585 230.543 683.868 353.46 648.647C381.586 640.588 408.196 627.955 435.868 618.43C464.626 608.551 494.546 602.057 524.795 599.127C595.401 592.305 668.585 604.635 736.285 583.563C772.093 572.421 804.971 552.031 830.873 524.896C863.27 491.04 874.768 443.793 858.949 399.73Z" fill="url(#paint0_linear)"/>
<path d="M58.1478 557.058C58.1478 567.139 186.017 575.3 343.757 575.3C501.471 575.3 629.34 567.114 629.34 557.058C629.34 546.977 501.471 538.816 343.757 538.816C186.017 538.816 58.1478 546.977 58.1478 557.058Z" fill="#3484F0"/>
<path d="M232.44 579.595C232.44 585.912 199.992 591.016 159.938 591.016C119.884 591.016 87.4365 585.912 87.4365 579.595C87.4365 573.279 119.884 568.175 159.938 568.175C199.967 568.175 232.44 573.279 232.44 579.595Z" fill="#2D7FED"/>
<path d="M663.519 591.015C702.423 591.015 733.961 586.966 733.961 581.97C733.961 576.975 702.423 572.925 663.519 572.925C624.615 572.925 593.077 576.975 593.077 581.97C593.077 586.966 624.615 591.015 663.519 591.015Z" fill="#3484F0"/>
<path d="M86.6783 431.74L82.0033 497.153H144.397L140.101 431.614L86.6783 431.74Z" fill="#D7D7FF"/>
<path d="M99.061 437.476C99.061 436.465 100.021 435.657 101.209 435.657C102.397 435.657 103.357 436.466 103.357 437.451C103.357 438.436 102.397 439.27 101.209 439.27C100.021 439.295 99.061 438.487 99.061 437.476ZM101.184 436.364C100.375 436.364 99.7433 436.87 99.7433 437.476C99.7433 438.083 100.4 438.588 101.184 438.588C101.992 438.588 102.624 438.083 102.624 437.476C102.649 436.844 101.992 436.364 101.184 436.364Z" fill="#EAE6FF"/>
<path d="M120.314 437.425H120.667H120.314C120.314 436.996 120.49 436.591 120.819 436.263C121.223 435.859 121.83 435.631 122.462 435.631C123.649 435.631 124.61 436.44 124.61 437.425C124.61 437.931 124.382 438.385 123.953 438.739C123.548 439.067 123.018 439.244 122.462 439.244C121.299 439.244 120.339 438.436 120.314 437.425ZM122.462 436.314C122.007 436.314 121.602 436.465 121.324 436.743C121.198 436.869 121.021 437.122 121.021 437.425C121.021 438.032 121.678 438.537 122.462 438.537C122.866 438.537 123.245 438.411 123.523 438.183C123.776 437.981 123.927 437.703 123.927 437.425C123.902 436.819 123.27 436.314 122.462 436.314Z" fill="#EAE6FF"/>
<path d="M111.191 450.639C111.393 450.639 111.595 450.639 111.797 450.639C115.714 450.513 118.696 449.25 120.667 446.9C123.927 443.009 123.194 437.577 123.169 437.35C123.119 436.971 122.765 436.693 122.386 436.768C122.007 436.819 121.754 437.173 121.805 437.552C121.805 437.602 122.487 442.605 119.606 446.041C117.888 448.062 115.259 449.174 111.772 449.275C108.386 449.376 105.859 448.492 104.191 446.622C101.133 443.236 101.891 437.653 101.891 437.602C101.942 437.223 101.689 436.869 101.31 436.819C100.956 436.768 100.577 437.021 100.527 437.4C100.501 437.653 99.6675 443.666 103.155 447.532C105 449.578 107.704 450.639 111.191 450.639Z" fill="#EAE6FF"/>
<path d="M116.018 450.058L108.563 498.695L176.313 498.543L169.465 449.932L116.018 450.058Z" fill="#BDC6F9"/>
<path d="M90.9238 532.172C83.3426 532.172 77.1766 538.336 77.1766 545.916C77.1766 553.496 83.3426 559.661 90.9238 559.661C98.505 559.661 104.671 553.496 104.671 545.916C104.671 538.336 98.505 532.172 90.9238 532.172ZM90.9238 552.308C87.4112 552.308 84.5556 549.479 84.5556 545.941C84.5556 542.429 87.4112 539.574 90.9238 539.574C94.4617 539.574 97.3426 542.429 97.3426 545.941C97.3426 549.453 94.4617 552.308 90.9238 552.308Z" fill="#8784EF"/>
<path d="M88.6747 532.172C81.0935 532.172 74.9275 538.336 74.9275 545.916C74.9275 553.496 81.0935 559.661 88.6747 559.661C96.2559 559.661 102.422 553.496 102.422 545.916C102.422 538.336 96.2559 532.172 88.6747 532.172ZM88.6747 552.308C85.1621 552.308 82.3065 549.479 82.3065 545.941C82.3065 542.429 85.1621 539.574 88.6747 539.574C92.2126 539.574 95.0935 542.429 95.0935 545.941C95.0682 549.453 92.2126 552.308 88.6747 552.308Z" fill="#9AA3F4"/>
<path d="M168.581 532.172C160.999 532.172 154.833 538.336 154.833 545.916C154.833 553.496 160.999 559.661 168.581 559.661C176.162 559.661 182.328 553.496 182.328 545.916C182.328 538.336 176.162 532.172 168.581 532.172ZM168.581 552.308C165.068 552.308 162.212 549.479 162.212 545.941C162.212 542.429 165.068 539.574 168.581 539.574C172.118 539.574 174.999 542.429 174.999 545.941C174.974 549.453 172.118 552.308 168.581 552.308Z" fill="#8784EF"/>
<path d="M166.306 532.172C158.725 532.172 152.559 538.336 152.559 545.916C152.559 553.496 158.725 559.661 166.306 559.661C173.887 559.661 180.053 553.496 180.053 545.916C180.053 538.336 173.887 532.172 166.306 532.172ZM166.306 552.308C162.794 552.308 159.938 549.479 159.938 545.941C159.938 542.429 162.794 539.574 166.306 539.574C169.844 539.574 172.725 542.429 172.725 545.941C172.725 549.453 169.844 552.308 166.306 552.308Z" fill="#9AA3F4"/>
<path d="M272.291 377.95H230.999C226.652 377.95 222.609 380.198 220.335 383.887L195.367 423.959" stroke="#9AA3F4" stroke-width="1.5" stroke-miterlimit="10"/>
<path d="M84.4293 497.583H176.692C181.595 497.583 185.79 494.02 186.573 489.169L196.126 429.618C197.111 423.529 192.411 418.021 186.245 418.021H74.877C68.7109 418.021 64.0358 423.529 64.9961 429.618L74.5484 489.169C75.3318 494.02 79.5015 497.583 84.4293 497.583Z" stroke="#9AA3F4" stroke-width="1.5" stroke-miterlimit="10"/>
<path d="M130.548 418.021V497.583" stroke="#9AA3F4" stroke-width="1.5" stroke-miterlimit="10"/>
<path d="M191.602 457.814H69.5196" stroke="#9AA3F4" stroke-width="1.5" stroke-miterlimit="10"/>
<path d="M166.989 418.021L159.104 497.583" stroke="#9AA3F4" stroke-width="1.5" stroke-miterlimit="10"/>
<path d="M95.9274 418.021L103.231 497.583" stroke="#9AA3F4" stroke-width="1.5" stroke-miterlimit="10"/>
<path d="M184.4 493.97L199.36 516.204C203.429 522.242 199.082 530.378 191.804 530.378H69.5196" stroke="#9AA3F4" stroke-width="1.5" stroke-miterlimit="10"/>
<path d="M505.716 504.506H379.136V538.539H505.716V504.506Z" fill="#4A41A3"/>
<path d="M638.766 515.623H247.425C234.335 515.623 223.696 505.011 223.696 491.898V223.728C223.696 210.64 234.31 200.003 247.425 200.003H638.766C651.857 200.003 662.495 210.615 662.495 223.728V491.923C662.495 505.011 651.857 515.623 638.766 515.623Z" fill="#5851BC"/>
<path d="M634.318 485.354H250.533C242.472 485.354 235.952 478.836 235.952 470.776V226.103C235.952 218.043 242.472 211.525 250.533 211.525H634.318C642.38 211.525 648.9 218.043 648.9 226.103V470.776C648.9 478.836 642.38 485.354 634.318 485.354Z" fill="#C4C3FC"/>
<path d="M560.124 557.058H324.728V554.102C324.728 543.895 333.017 535.608 343.226 535.608H541.601C551.81 535.608 560.099 543.895 560.099 554.102V557.058H560.124Z" fill="#5851BC"/>
<g opacity="0.35">
<g opacity="0.35">
<g opacity="0.35">
<path opacity="0.35" d="M610.842 424.616H347.219C340.219 424.616 334.558 418.956 334.558 411.957V243.081C334.558 236.083 340.219 230.423 347.219 230.423H610.842C617.842 230.423 623.503 236.083 623.503 243.081V411.932C623.503 418.956 617.842 424.616 610.842 424.616Z" fill="white"/>
</g>
</g>
</g>
<g opacity="0.25">
<g opacity="0.25">
<g opacity="0.25">
<g opacity="0.25">
<g opacity="0.25">
<path opacity="0.25" d="M374.612 372.29H362.027V403.872H374.612V372.29Z" fill="#FCA70C"/>
</g>
</g>
</g>
<g opacity="0.25">
<g opacity="0.25">
<g opacity="0.25">
<path opacity="0.25" d="M402.966 344.549H390.381V403.873H402.966V344.549Z" fill="#B1AFFD"/>
</g>
</g>
</g>
<g opacity="0.25">
<g opacity="0.25">
<g opacity="0.25">
<path opacity="0.25" d="M431.345 350.688H418.76V403.872H431.345V350.688Z" fill="#FCA70C"/>
</g>
</g>
</g>
<g opacity="0.25">
<g opacity="0.25">
<g opacity="0.25">
<path opacity="0.25" d="M459.698 320.647H447.114V403.872H459.698V320.647Z" fill="#B1AFFD"/>
</g>
</g>
</g>
<g opacity="0.15">
<g opacity="0.15">
<g opacity="0.15">
<path opacity="0.26" d="M396.168 344.549H390.381V403.873H396.168V344.549Z" fill="black"/>
</g>
</g>
</g>
<g opacity="0.15">
<g opacity="0.15">
<g opacity="0.15">
<path opacity="0.26" d="M367.814 372.29H362.027V403.872H367.814V372.29Z" fill="black"/>
</g>
</g>
</g>
<g opacity="0.62">
<g opacity="0.62">
<g opacity="0.62">
<path opacity="0.26" d="M452.901 320.647H447.114V403.872H452.901V320.647Z" fill="black"/>
</g>
</g>
</g>
<g opacity="0.15">
<g opacity="0.15">
<g opacity="0.15">
<path opacity="0.26" d="M424.547 350.688H418.76V403.872H424.547V350.688Z" fill="black"/>
</g>
</g>
</g>
<g opacity="0.25">
<g opacity="0.25">
<g opacity="0.25">
<path opacity="0.25" d="M466.37 412.564H353.713V292.653H355.432V410.846H466.37V412.564Z" fill="#D5DBDA"/>
</g>
</g>
</g>
<g opacity="0.25">
<g opacity="0.25">
<g opacity="0.25">
<path opacity="0.25" d="M365.287 357.485L364.15 356.196L393.616 329.743L420.908 335.68L450.449 302.784L451.738 303.947L421.515 337.575L394.096 331.613L365.287 357.485Z" fill="#D5DBDA"/>
</g>
</g>
</g>
<g opacity="0.25">
<g opacity="0.25">
<g opacity="0.25">
<path opacity="0.25" d="M454.038 308.797L445.724 300.813L456.464 297.933L454.038 308.797Z" fill="#D5DBDA"/>
</g>
</g>
</g>
<g opacity="0.25">
<g opacity="0.25">
<g opacity="0.25">
<g opacity="0.25">
<path opacity="0.25" d="M485.677 370.042H477.034V378.682H485.677V370.042Z" fill="#B1AFFD"/>
</g>
</g>
</g>
<g opacity="0.25">
<g opacity="0.25">
<g opacity="0.25">
<path opacity="0.25" d="M485.677 385.176H477.034V393.816H485.677V385.176Z" fill="#FCA70C"/>
</g>
</g>
</g>
<g opacity="0.25">
<g opacity="0.25">
<g opacity="0.25">
<path opacity="0.25" d="M515.446 388.915H488.052V393.817H515.446V388.915Z" fill="#EFEFEF"/>
</g>
</g>
</g>
<g opacity="0.25">
<g opacity="0.25">
<g opacity="0.25">
<path opacity="0.25" d="M515.446 373.781H488.052V378.682H515.446V373.781Z" fill="#EFEFEF"/>
</g>
</g>
</g>
</g>
<g opacity="0.25">
<g opacity="0.25">
<g opacity="0.25">
<g opacity="0.25">
<path opacity="0.25" d="M536.496 370.042H527.853V378.682H536.496V370.042Z" fill="#B1AFFD"/>
</g>
</g>
</g>
<g opacity="0.25">
<g opacity="0.25">
<g opacity="0.25">
<path opacity="0.25" d="M536.496 385.176H527.853V393.816H536.496V385.176Z" fill="#FCA70C"/>
</g>
</g>
</g>
<g opacity="0.25">
<g opacity="0.25">
<g opacity="0.25">
<path opacity="0.25" d="M566.265 388.915H538.871V393.817H566.265V388.915Z" fill="#EFEFEF"/>
</g>
</g>
</g>
<g opacity="0.25">
<g opacity="0.25">
<g opacity="0.25">
<path opacity="0.25" d="M566.265 373.781H538.871V378.682H566.265V373.781Z" fill="#EFEFEF"/>
</g>
</g>
</g>
</g>
<g opacity="0.25">
<g opacity="0.25">
<g opacity="0.25">
<g opacity="0.25">
<path opacity="0.25" d="M582.261 370.042H573.619V378.682H582.261V370.042Z" fill="#B1AFFD"/>
</g>
</g>
</g>
<g opacity="0.25">
<g opacity="0.25">
<g opacity="0.25">
<path opacity="0.25" d="M582.261 385.176H573.619V393.816H582.261V385.176Z" fill="#FCA70C"/>
</g>
</g>
</g>
<g opacity="0.25">
<g opacity="0.25">
<g opacity="0.25">
<path opacity="0.25" d="M602.68 388.915H584.662V393.817H602.68V388.915Z" fill="#EFEFEF"/>
</g>
</g>
</g>
<g opacity="0.25">
<g opacity="0.25">
<g opacity="0.25">
<path opacity="0.25" d="M602.68 373.781H584.662V378.682H602.68V373.781Z" fill="#EFEFEF"/>
</g>
</g>
</g>
</g>
<g opacity="0.25">
<g opacity="0.25">
<g opacity="0.25">
<g opacity="0.25">
<path opacity="0.25" d="M602.68 287.473H478.651V289.722H602.68V287.473Z" fill="#EFEFEF"/>
</g>
</g>
</g>
<g opacity="0.25">
<g opacity="0.25">
<g opacity="0.25">
<path opacity="0.25" d="M602.68 259.807H353.713V264.962H602.68V259.807Z" fill="#EFEFEF"/>
</g>
</g>
</g>
<g opacity="0.25">
<g opacity="0.25">
<g opacity="0.25">
<path opacity="0.25" d="M602.68 294.472H478.272V296.721H602.68V294.472Z" fill="#EFEFEF"/>
</g>
</g>
</g>
<g opacity="0.25">
<g opacity="0.25">
<g opacity="0.25">
<path opacity="0.25" d="M602.68 280.449H478.272V282.698H602.68V280.449Z" fill="#EFEFEF"/>
</g>
</g>
</g>
<g opacity="0.25">
<g opacity="0.25">
<g opacity="0.25">
<path opacity="0.25" d="M602.68 301.496H478.272V303.744H602.68V301.496Z" fill="#EFEFEF"/>
</g>
</g>
</g>
<g opacity="0.25">
<g opacity="0.25">
<g opacity="0.25">
<path opacity="0.25" d="M602.68 308.52H478.272V310.768H602.68V308.52Z" fill="#EFEFEF"/>
</g>
</g>
</g>
<g opacity="0.25">
<g opacity="0.25">
<g opacity="0.25">
<path opacity="0.25" d="M602.68 315.518H478.272V317.767H602.68V315.518Z" fill="#EFEFEF"/>
</g>
</g>
</g>
<g opacity="0.25">
<g opacity="0.25">
<g opacity="0.25">
<path opacity="0.25" d="M602.68 322.542H478.272V324.791H602.68V322.542Z" fill="#EFEFEF"/>
</g>
</g>
</g>
<g opacity="0.25">
<g opacity="0.25">
<g opacity="0.25">
<path opacity="0.25" d="M602.68 329.541H478.272V331.789H602.68V329.541Z" fill="#EFEFEF"/>
</g>
</g>
</g>
<g opacity="0.25">
<g opacity="0.25">
<g opacity="0.25">
<path opacity="0.25" d="M602.68 336.564H478.272V338.813H602.68V336.564Z" fill="#EFEFEF"/>
</g>
</g>
</g>
<g opacity="0.25">
<g opacity="0.25">
<g opacity="0.25">
<path opacity="0.25" d="M602.68 343.563H493.511V345.812H602.68V343.563Z" fill="#EFEFEF"/>
</g>
</g>
</g>
</g>
</g>
<path opacity="0.25" d="M610.842 230.423H347.219C340.219 230.423 334.558 236.083 334.558 243.081V254.148H623.503V243.081C623.503 236.108 617.842 230.423 610.842 230.423Z" fill="#7A7AE5"/>
<path opacity="0.25" d="M586.355 242.728C586.355 244.749 584.712 246.366 582.716 246.366C580.694 246.366 579.077 244.724 579.077 242.728C579.077 240.707 580.72 239.09 582.716 239.09C584.712 239.09 586.355 240.732 586.355 242.728Z" fill="#CFCFFF"/>
<path opacity="0.25" d="M597.575 246.366C599.585 246.366 601.214 244.737 601.214 242.728C601.214 240.719 599.585 239.09 597.575 239.09C595.565 239.09 593.936 240.719 593.936 242.728C593.936 244.737 595.565 246.366 597.575 246.366Z" fill="#CFCFFF"/>
<path opacity="0.25" d="M612.46 246.366C614.469 246.366 616.099 244.737 616.099 242.728C616.099 240.719 614.469 239.09 612.46 239.09C610.45 239.09 608.821 240.719 608.821 242.728C608.821 244.737 610.45 246.366 612.46 246.366Z" fill="#CFCFFF"/>
</g>
<path opacity="0.55" d="M534.095 467.567H270.472C263.472 467.567 257.811 461.908 257.811 454.909V286.059C257.811 279.06 263.472 273.4 270.472 273.4H534.095C541.095 273.4 546.756 279.06 546.756 286.059V454.909C546.756 461.908 541.095 467.567 534.095 467.567Z" fill="#C4C3FC"/>
<path d="M539.958 460.013H276.335C269.335 460.013 263.674 454.353 263.674 447.355V278.504C263.674 271.505 269.335 265.846 276.335 265.846H539.958C546.958 265.846 552.619 271.505 552.619 278.504V447.355C552.619 454.328 546.958 460.013 539.958 460.013Z" fill="white"/>
<path d="M539.958 265.821H276.335C269.335 265.821 263.674 271.48 263.674 278.479V289.545H552.619V278.479C552.619 271.48 546.958 265.821 539.958 265.821Z" fill="#A4A4F7"/>
<path d="M515.445 278.125C515.445 280.146 513.803 281.763 511.807 281.763C509.81 281.763 508.168 280.121 508.168 278.125C508.168 276.129 509.81 274.487 511.807 274.487C513.803 274.487 515.445 276.104 515.445 278.125Z" fill="#CFCFFF"/>
<path d="M530.33 278.125C530.33 280.146 528.687 281.763 526.691 281.763C524.669 281.763 523.052 280.121 523.052 278.125C523.052 276.129 524.695 274.487 526.691 274.487C528.687 274.487 530.33 276.104 530.33 278.125Z" fill="#CFCFFF"/>
<path d="M545.214 278.125C545.214 280.146 543.572 281.763 541.575 281.763C539.554 281.763 537.936 280.121 537.936 278.125C537.936 276.129 539.579 274.487 541.575 274.487C543.572 274.487 545.214 276.104 545.214 278.125Z" fill="#CFCFFF"/>
<path opacity="0.35" d="M637.477 200.231H569.828C570.283 222.161 570.662 244.117 570.94 266.048C570.99 269.408 570.94 272.87 569.727 275.977C569.676 275.977 569.626 275.977 569.626 275.977C568.741 275.927 569.12 276.205 568.817 277.822C568.817 277.847 568.792 277.872 568.792 277.897C566.063 282.37 560.705 284.795 555.525 285.957C555.474 286.235 555.525 286.463 555.601 286.69C554.994 287.221 554.716 287.903 555.07 288.736C555.373 289.469 559.265 290.455 564.546 289.899C566.063 289.747 569.019 288.913 570.409 288.282C571.243 287.903 571.976 287.322 572.557 286.816C573.24 286.74 573.922 286.589 574.528 286.336L574.73 286.538L580.795 283.911C580.795 283.911 580.138 280.096 579.608 278.1C579.507 277.721 579.355 277.417 579.203 277.165C584.257 263.42 588.276 249.322 591.081 234.946C589.969 252.758 583.575 288.964 583.095 290.202C582.286 292.299 579.507 295.255 575.388 295.609C573.947 295.735 566.897 295.331 567.655 298.565C567.832 299.348 571.496 300.99 576.803 301.344C578.319 301.445 581.377 301.142 582.868 300.763C584.839 300.232 586.633 298.716 586.633 298.716L587.442 299.803L593.86 298.262C593.86 298.262 593.86 296.594 593.81 294.573C593.759 292.552 592.445 290.657 592.445 290.657L592.546 287.018L596.109 286.589C596.109 286.589 603.261 263.471 606.647 255.613C608.037 252.379 609.604 249.17 610.488 245.76C611.524 241.742 611.626 237.573 611.954 233.43C612.561 225.901 613.95 218.422 616.098 211.196C616.225 210.741 616.376 210.261 616.705 209.907C617.261 209.276 618.196 209.175 619.055 209.099C628.153 208.265 632.322 209.806 638.008 208.038C645.513 205.713 646.297 202.303 646.676 202.151C643.871 200.888 640.737 200.231 637.477 200.231Z" fill="#5851BC"/>
<g opacity="0.35">
<path opacity="0.35" d="M662.495 351.648V273.198C650.795 288.509 639.221 302.229 627.521 317.565C622.441 324.21 602.553 346.216 616.124 355.059C619.586 357.308 625.626 357.207 628.633 357.434C639.449 358.192 650.189 355.211 660.701 352.229C661.283 352.027 661.889 351.85 662.495 351.648Z" fill="#5851BC"/>
</g>
<path opacity="0.35" d="M662.495 368.526L655.976 369.031L655.849 368.652L650.77 369.056L649.254 364.736C648.394 362.285 645.514 360.466 642.86 360.668C640.207 360.896 638.741 363.043 639.625 365.519C639.878 366.277 640.636 368.349 641.142 369.789L635.81 370.193L635.911 370.572L624.918 371.431C623.174 371.431 620.622 373.68 621.178 375.246L621.279 375.474C621.304 375.6 621.279 375.727 621.329 375.878L630.831 402.685L630.579 515.623H641.597L662.47 434.495V368.526H662.495ZM645.337 367.692C643.846 367.818 642.228 366.782 641.748 365.418C641.268 364.029 642.077 362.816 643.568 362.689C645.059 362.563 646.676 363.599 647.156 364.963C647.662 366.353 646.828 367.566 645.337 367.692Z" fill="#5851BC"/>
<path opacity="0.35" d="M251.266 321.986C248.815 324.69 245.909 330.45 244.746 332.926C243.508 335.377 242.169 336.767 238.656 338.409C233.829 340.607 228.649 342.729 223.696 344.675V357.484C233.804 351.395 242.952 345.736 243.104 345.685C250.837 348.642 257.281 342.224 259.353 337.575C260.288 335.503 258.898 334.644 258.822 333.659C258.797 333.154 259.454 330.147 259.353 329.743C258.746 327.039 251.494 329.414 252.075 328.126C252.429 327.14 253.288 324.841 255.107 323.603C258.67 321.178 261.4 318.474 261.4 317.464C261.4 315.72 252.125 321.077 251.266 321.986Z" fill="#5851BC"/>
<path d="M795.773 584.37H660.297C650.593 584.37 642.734 576.513 642.734 566.811V404.681C642.734 394.979 650.593 387.121 660.297 387.121H795.773C805.477 387.121 813.336 394.979 813.336 404.681V566.811C813.336 576.487 805.477 584.37 795.773 584.37Z" fill="#A2A7F4"/>
<path d="M798.325 448.264H663.001C660.524 448.264 658.528 446.268 658.528 443.792V412.235C658.528 409.759 660.524 407.763 663.001 407.763H798.325C800.802 407.763 802.798 409.759 802.798 412.235V443.792C802.798 446.268 800.777 448.264 798.325 448.264Z" fill="#9090F4"/>
<path d="M691.127 488.361H663.001C660.524 488.361 658.528 486.365 658.528 483.889V467.138C658.528 464.662 660.524 462.666 663.001 462.666H691.127C693.604 462.666 695.6 464.662 695.6 467.138V483.889C695.625 486.34 693.604 488.361 691.127 488.361Z" fill="#9090F4"/>
<path d="M744.726 488.361H716.6C714.123 488.361 712.127 486.365 712.127 483.889V467.138C712.127 464.662 714.123 462.666 716.6 462.666H744.726C747.203 462.666 749.199 464.662 749.199 467.138V483.889C749.199 486.34 747.203 488.361 744.726 488.361Z" fill="#9090F4"/>
<path d="M798.325 488.361H770.199C767.722 488.361 765.726 486.365 765.726 483.889V467.138C765.726 464.662 767.722 462.666 770.199 462.666H798.325C800.802 462.666 802.798 464.662 802.798 467.138V483.889C802.798 486.34 800.776 488.361 798.325 488.361Z" fill="#9090F4"/>
<path d="M691.127 529.695H663.001C660.524 529.695 658.528 527.7 658.528 525.223V508.472C658.528 505.996 660.524 504 663.001 504H691.127C693.604 504 695.6 505.996 695.6 508.472V525.223C695.625 527.7 693.604 529.695 691.127 529.695Z" fill="#9090F4"/>
<path d="M744.726 529.695H716.6C714.123 529.695 712.127 527.7 712.127 525.223V508.472C712.127 505.996 714.123 504 716.6 504H744.726C747.203 504 749.199 505.996 749.199 508.472V525.223C749.199 527.7 747.203 529.695 744.726 529.695Z" fill="#9090F4"/>
<path d="M691.127 571.03H663.001C660.524 571.03 658.528 569.034 658.528 566.558V549.807C658.528 547.331 660.524 545.335 663.001 545.335H691.127C693.604 545.335 695.6 547.331 695.6 549.807V566.558C695.625 569.034 693.604 571.03 691.127 571.03Z" fill="#9090F4"/>
<path d="M744.726 571.03H716.6C714.123 571.03 712.127 569.034 712.127 566.558V549.807C712.127 547.331 714.123 545.335 716.6 545.335H744.726C747.203 545.335 749.199 547.331 749.199 549.807V566.558C749.199 569.034 747.203 571.03 744.726 571.03Z" fill="#9090F4"/>
<path d="M798.325 571.03H770.199C767.722 571.03 765.726 569.034 765.726 566.558V508.447C765.726 505.971 767.722 503.975 770.199 503.975H798.325C800.802 503.975 802.798 505.971 802.798 508.447V566.558C802.798 569.034 800.776 571.03 798.325 571.03Z" fill="#9090F4"/>
<g opacity="0.45">
<path opacity="0.45" d="M655.9 409.607C655.9 407.131 657.896 405.135 660.373 405.135H795.697C798.174 405.135 800.17 407.131 800.17 409.607V441.164C800.17 443.64 798.174 445.636 795.697 445.636H660.373" fill="#E2DEFF"/>
<path opacity="0.45" d="M688.499 485.733H660.373C657.896 485.733 655.9 483.737 655.9 481.261V464.51C655.9 462.034 657.896 460.038 660.373 460.038H688.499C690.975 460.038 692.972 462.034 692.972 464.51V481.261C692.997 483.737 690.975 485.733 688.499 485.733Z" fill="#E2DEFF"/>
<path opacity="0.45" d="M742.098 485.733H713.972C711.495 485.733 709.499 483.737 709.499 481.261V464.51C709.499 462.034 711.495 460.038 713.972 460.038H742.098C744.575 460.038 746.571 462.034 746.571 464.51V481.261C746.571 483.737 744.575 485.733 742.098 485.733Z" fill="#E2DEFF"/>
<path opacity="0.45" d="M795.697 485.733H767.571C765.094 485.733 763.098 483.737 763.098 481.261V464.51C763.098 462.034 765.094 460.038 767.571 460.038H795.697C798.174 460.038 800.17 462.034 800.17 464.51V481.261C800.17 483.737 798.174 485.733 795.697 485.733Z" fill="#E2DEFF"/>
<path opacity="0.45" d="M688.499 527.068H660.373C657.896 527.068 655.9 525.072 655.9 522.596V505.845C655.9 503.369 657.896 501.373 660.373 501.373H688.499C690.975 501.373 692.972 503.369 692.972 505.845V522.596C692.997 525.072 690.975 527.068 688.499 527.068Z" fill="#E2DEFF"/>
<path opacity="0.45" d="M742.098 527.068H713.972C711.495 527.068 709.499 525.072 709.499 522.596V505.845C709.499 503.369 711.495 501.373 713.972 501.373H742.098C744.575 501.373 746.571 503.369 746.571 505.845V522.596C746.571 525.072 744.575 527.068 742.098 527.068Z" fill="#E2DEFF"/>
<path opacity="0.45" d="M688.499 568.428H660.373C657.896 568.428 655.9 566.432 655.9 563.956V547.204C655.9 544.728 657.896 542.732 660.373 542.732H688.499C690.975 542.732 692.972 544.728 692.972 547.204V563.956C692.997 566.406 690.975 568.428 688.499 568.428Z" fill="#E2DEFF"/>
<path opacity="0.45" d="M742.098 568.428H713.972C711.495 568.428 709.499 566.432 709.499 563.956V547.204C709.499 544.728 711.495 542.732 713.972 542.732H742.098C744.575 542.732 746.571 544.728 746.571 547.204V563.956C746.571 566.406 744.575 568.428 742.098 568.428Z" fill="#E2DEFF"/>
</g>
<path d="M795.697 568.428H767.571C765.094 568.428 763.098 566.432 763.098 563.956V505.845C763.098 503.369 765.094 501.373 767.571 501.373H795.697C798.174 501.373 800.17 503.369 800.17 505.845V563.956C800.17 566.406 798.174 568.428 795.697 568.428Z" fill="#FCA70C"/>
<path d="M765.701 566.558V508.447C765.701 505.971 767.697 503.975 770.174 503.975H798.3C798.856 503.975 799.386 504.076 799.867 504.278C799.235 502.585 797.592 501.373 795.672 501.373H767.546C765.069 501.373 763.073 503.369 763.073 505.845V563.956C763.073 565.876 764.286 567.493 765.979 568.15C765.802 567.644 765.701 567.114 765.701 566.558Z" fill="#F9C110"/>
<path opacity="0.35" d="M642.734 433.635L647.308 445.662H666.438C666.438 445.662 665.098 497.658 665.023 507.386C664.947 517.138 673.033 584.37 673.033 584.37H684.102L682.939 499.604L698.658 456.122C698.658 456.122 710.459 514.334 715.362 524.086C720.264 533.839 746.571 584.37 746.571 584.37H756.73L730.65 472.898L719.456 434.166L663.001 407.788L642.734 409.784" fill="#5851BC"/>
<path d="M260.743 476.814L251.847 569.161H339.41L330.945 476.663L260.743 476.814Z" fill="#FCA70C"/>
<path d="M276.031 485.279C276.031 483.738 277.497 482.5 279.317 482.5C281.136 482.5 282.602 483.738 282.602 485.279C282.602 486.82 281.136 488.058 279.317 488.058C277.497 488.033 276.031 486.795 276.031 485.279ZM279.291 483.536C278.053 483.536 277.067 484.319 277.067 485.254C277.067 486.189 278.078 486.972 279.291 486.972C280.53 486.972 281.515 486.189 281.515 485.254C281.54 484.319 280.53 483.536 279.291 483.536C279.317 483.536 279.291 483.536 279.291 483.536Z" fill="#5851BC"/>
<path d="M308.656 485.203H309.186H308.656C308.656 484.546 308.934 483.914 309.414 483.409C310.046 482.777 310.955 482.423 311.916 482.423C311.916 482.423 311.916 482.423 311.941 482.423C313.735 482.423 315.226 483.661 315.226 485.203C315.226 485.961 314.872 486.668 314.241 487.199C313.634 487.704 312.825 487.982 311.966 487.982C310.147 487.957 308.681 486.719 308.656 485.203ZM311.941 483.485C311.259 483.485 310.602 483.737 310.197 484.167C309.995 484.369 309.742 484.723 309.742 485.203C309.742 486.137 310.753 486.921 311.966 486.921C312.573 486.921 313.154 486.719 313.584 486.39C313.988 486.062 314.19 485.657 314.19 485.203C314.165 484.242 313.179 483.485 311.941 483.485Z" fill="#5851BC"/>
<path d="M294.656 505.441C294.959 505.441 295.262 505.441 295.591 505.415C301.58 505.213 306.154 503.293 309.186 499.68C314.19 493.717 313.053 485.38 313.002 485.026C312.926 484.445 312.371 484.015 311.815 484.142C311.233 484.217 310.829 484.773 310.905 485.329C310.905 485.405 311.941 493.111 307.544 498.341C304.916 501.449 300.872 503.141 295.515 503.318C290.309 503.47 286.443 502.131 283.865 499.25C279.19 494.046 280.353 485.506 280.353 485.405C280.428 484.824 280.024 484.293 279.443 484.217C278.887 484.142 278.331 484.546 278.255 485.127C278.205 485.506 276.941 494.728 282.273 500.665C285.154 503.849 289.298 505.441 294.656 505.441Z" fill="#5851BC"/>
<path d="M174.645 268.751C178.032 274.613 175.1 282.597 178.537 288.433C179.902 290.758 182.227 292.602 182.884 295.23C183.44 297.428 182.58 299.929 180.786 301.344C178.992 302.759 176.364 302.986 174.368 301.925C173.938 301.698 173.534 301.42 173.053 301.268C171.36 300.763 169.844 302.279 168.378 303.264C166.584 304.477 164.259 305.033 162.212 304.351C159.584 303.466 157.967 300.813 157.082 298.211C154.631 290.859 156.375 282.824 158.624 275.421C159.761 271.733 161.429 267.614 165.043 266.275" fill="#5045AF"/>
<path d="M253.364 331.006C253.414 331.814 254.652 332.522 253.844 334.24C251.999 338.055 246.262 343.361 239.414 340.91C239.111 341.011 201.533 362.74 198.627 362.74C195.721 362.74 176.01 344.068 169.541 320.975C167.999 315.468 168.606 308.974 173.761 306.195C173.761 306.195 178.057 307.231 180.862 312.511C185.133 320.571 197.92 347.277 200.775 348.288C204.313 345.938 221.523 340.809 235.472 334.897C238.58 333.533 239.768 332.396 240.88 330.374C241.916 328.328 244.494 323.578 246.667 321.354C247.425 320.597 255.663 316.175 255.663 317.615C255.663 318.449 253.237 320.672 250.078 322.668C248.461 323.704 247.703 325.599 247.4 326.408C246.869 327.469 253.313 325.523 253.844 327.747C253.945 328.1 253.338 330.576 253.364 331.006Z" fill="#FFB9B0"/>
<path d="M172.27 305.538C177.147 306.675 181.165 309.808 183.49 314.229C184.097 315.366 184.552 316.554 185.032 317.741C187.028 322.845 189.783 327.443 191.779 332.522C189.05 334.72 185.739 335.756 182.934 336.792C180.331 337.777 177.476 338.156 174.696 337.903C174.216 337.853 173.736 337.802 173.306 337.6C172.725 337.322 172.295 336.842 171.866 336.362C171.007 335.377 170.173 334.366 169.364 333.356C168.656 332.471 167.974 331.562 167.696 330.475C167.292 329.01 167.696 327.469 168.1 326.003" fill="#7762EF"/>
<g opacity="0.35">
<path opacity="0.35" d="M177.198 319.434C177.021 319.207 176.819 318.979 176.566 318.878C176.061 318.676 175.479 319.005 175.227 319.485C174.949 319.965 174.949 320.521 174.949 321.051C174.974 323.123 175.303 325.169 175.909 327.14L175.277 337.878C175.277 337.878 175.277 337.903 175.303 337.903C177.905 338.055 180.559 337.701 183.01 336.792C184.173 336.362 185.436 335.907 186.7 335.402C185.335 329.338 181.216 324.235 177.198 319.434Z" fill="#7762EF"/>
</g>
<path d="M160.544 294.851C160.544 294.851 160.393 301.571 161.429 302.026C163.476 302.91 165.775 303.365 165.775 303.365L165.851 317.287L147.303 314.482L134.541 307.383C134.541 307.383 147.808 302.986 147.934 301.672C148.061 300.359 147.202 292.905 147.202 292.905" fill="#FFB9B0"/>
<path d="M132.014 496.244C132.014 496.269 132.014 496.269 132.014 496.294C126.934 520.372 129.36 553.42 128.223 571.535C128.501 571.611 135.122 572.445 135.122 572.445C135.122 572.445 150.815 496.067 153.671 481.438C153.873 480.427 153.999 479.467 154.025 478.608C154.707 467.592 144.801 467.036 139.191 476.132C138.256 477.623 137.397 479.265 136.638 481.034C136.335 481.741 136.032 482.474 135.729 483.257V483.282C134.794 485.657 133.985 488.234 133.277 490.963L133.227 491.241C132.999 491.999 132.797 492.782 132.62 493.565L132.595 493.742C132.368 494.576 132.191 495.41 132.014 496.244Z" fill="#FFB9B0"/>
<path d="M161.757 409.86C161.581 411.856 160.519 421.331 159.23 432.498C158.144 441.897 156.956 452.483 156.021 460.872C155.339 467.163 154.833 472.191 154.606 474.54C154.505 476.006 154.303 477.32 154.05 478.608V478.659C151.649 489.649 144.068 490.281 139.443 487.729C138.812 487.401 138.205 486.971 137.7 486.542C136.638 485.582 135.931 484.419 135.729 483.308V483.282C135.425 481.034 135.147 477.951 134.869 474.288V474.237C134.844 474.212 134.844 474.212 134.844 474.187L134.819 474.111C134.263 466.961 133.783 457.789 133.353 448.845C132.848 437.855 132.519 427.268 132.443 421.28C132.418 420.927 132.418 420.623 132.393 420.295C132.317 401.977 149.147 390.229 159.609 395.914C159.736 395.964 159.837 396.015 159.988 396.09C160.14 396.191 160.292 396.267 160.393 396.318C161.581 397.126 161.985 399.855 162.01 402.988C162.061 405.287 161.909 407.788 161.757 409.86Z" fill="#FFB9B0"/>
<path d="M136.133 478.987L134.844 474.187C134.844 474.212 134.844 474.212 134.844 474.237C134.869 475.324 134.996 483.055 133.252 490.988L133.202 491.266C133.025 492.024 132.823 492.833 132.595 493.591L132.57 493.768C132.216 495.031 132.039 495.839 132.039 496.218C132.039 496.244 132.039 496.244 132.039 496.269C132.014 498.442 136.664 488.79 137.725 486.516C137.851 486.239 137.927 486.062 137.927 486.062L136.664 481.034L136.133 478.987Z" fill="#FFB9B0"/>
<path d="M172.396 500.842C172.396 500.867 172.396 500.867 172.396 500.893C171.916 526.082 179.7 555.719 181.746 574.037C181.999 574.037 188.115 573.228 188.115 573.228C188.115 573.228 189.277 496.016 189.353 480.756C189.353 479.695 189.302 478.709 189.201 477.85C187.938 466.733 178.941 468.628 175.454 479.088C174.873 480.806 174.393 482.651 173.988 484.596C173.837 485.379 173.685 486.188 173.534 487.022V487.047C173.104 489.649 172.801 492.403 172.624 495.309V495.612C172.548 496.446 172.497 497.254 172.472 498.088V498.265C172.447 499.099 172.422 499.958 172.396 500.842Z" fill="#FFB9B0"/>
<path d="M177.627 490.559C176.97 490.382 176.389 490.104 175.858 489.776C174.721 489.093 173.862 488.133 173.534 487.047V487.022C172.877 484.849 172.093 481.817 171.209 478.229C171.183 478.204 171.183 478.204 171.183 478.179L171.158 478.078C169.465 471.13 167.443 462.11 165.548 453.317C163.223 442.504 161.151 432.043 160.064 426.106C159.988 425.778 159.053 421.457 158.978 421.154C155.743 402.735 170.097 390.759 180.534 394.271C180.685 394.322 180.812 394.372 180.938 394.423C183.035 395.257 183.617 402.634 184.097 407.637C184.577 412.614 188.115 464.308 188.999 473.656C189.151 475.147 189.201 476.536 189.176 477.85C188.974 489.397 182.227 491.948 177.627 490.559Z" fill="#FFB9B0"/>
<path d="M173.18 482.651L171.209 478.204C171.209 478.229 171.209 478.229 171.234 478.254C171.436 479.316 172.877 486.996 172.649 495.309V495.612C172.624 496.42 172.573 497.254 172.497 498.088V498.265C172.396 499.629 172.371 500.438 172.422 500.842C172.422 500.867 172.422 500.867 172.422 500.892C172.775 503.065 175.302 492.302 175.884 489.801C175.96 489.472 176.01 489.296 176.01 489.296L174.039 484.596L173.18 482.651Z" fill="#FFB9B0"/>
<path d="M141.162 374.488C141.162 374.488 127.642 391.644 129.032 408.9C129.613 416.076 130.498 422.417 131.306 429.618C131.433 430.654 133.05 445.839 132.595 445.839C132.595 445.839 160.443 454.454 187.357 443.16C187.357 441.316 189.505 406.02 174.974 372.366C157.436 374.867 141.162 374.488 141.162 374.488Z" fill="#5146AF"/>
<path d="M183.49 334.872C183.389 339.798 180.761 342.78 177.021 346.923C176.541 347.656 175.378 358.621 174.974 365.898C174.772 369.688 176.389 372.063 174.974 372.391C169.566 377.091 150.108 380.931 141.162 374.488C142.097 366.555 138.559 349.096 136.158 340.228C135.779 338.864 135.451 337.701 135.147 336.817C132.924 330.071 128.88 308.444 131.862 307.509C132.469 307.332 133.379 307.079 134.44 306.751C139.115 305.336 146.014 302.936 146.014 302.936C146.014 302.936 150.057 314.912 160.57 316.352C166.306 313.977 165.801 306.726 165.725 303.391C167.595 303.921 168.429 304.426 174.241 306.145C175.884 308.494 174.469 313.396 177.097 320.723C177.804 322.517 183.617 328.884 183.49 334.872Z" fill="#7762EF"/>
<path d="M173.963 267.387C173.963 267.387 175.025 280.399 172.801 287.195C171.158 292.248 164.411 296.948 158.776 296.897C143.259 296.897 140.454 275.8 140.555 274.79C140.631 273.779 163.451 264.911 163.451 264.911L173.963 267.387Z" fill="#FFB9B0"/>
<path d="M203.53 581.313C197.996 582.299 192.108 580.757 189.682 581.162C187.685 581.49 182.53 582.804 180.609 581.086C178.689 579.368 178.992 573.253 181.216 572.445C181.216 572.445 181.721 572.647 182.656 572.799C184.046 573.001 186.321 573.102 189.201 572.268C193.396 573.986 193.573 574.744 198.349 575.729C200.422 576.159 202.848 576.841 204.44 577.574C206.487 578.509 206.638 580.757 203.53 581.313Z" fill="#5045AF"/>
<path d="M143.866 583.764C138.332 582.829 134.819 579.772 132.393 579.343C130.397 578.989 125.368 578.003 124.837 575.932C124.433 574.391 125.974 568.024 128.324 567.998C128.324 567.998 128.729 568.352 129.563 568.807C130.801 569.464 132.924 570.348 135.906 570.525C139.292 573.582 139.166 574.34 143.335 576.867C145.155 577.978 147.202 579.444 148.44 580.656C150.057 582.248 146.999 584.269 143.866 583.764Z" fill="#5045AF"/>
<path d="M63.1766 325.599L68.256 319.561L99.2884 347.302C99.2884 347.302 114.426 327.14 118.595 320.849C123.169 313.926 127.314 308.014 134.01 306.852C135.552 307.812 133.48 332.648 132.671 333.255C123.321 340.253 105.101 362.841 99.3137 364.003C92.6169 365.342 63.1766 325.599 63.1766 325.599Z" fill="#FFB9B0"/>
<path d="M136.31 305.715C136.31 305.715 129.967 305.791 127.238 308.04C124.508 310.288 111.494 330.905 111.494 330.905C111.494 330.905 111.166 334.796 114.906 338.08C118.924 341.567 124.281 342.148 124.281 342.148C124.281 342.148 130.826 335.655 134.49 332.699C136.79 330.854 137.017 335.428 137.017 335.428L148.541 324.184L136.31 305.715Z" fill="#7762EF"/>
<path d="M132.469 305.968C132.115 305.791 131.786 305.589 131.458 305.387C129.689 304.325 128.046 303.214 127.288 301.193C126.202 298.287 125.696 293.815 127.212 290.985C128.223 289.065 130.144 287.827 131.483 286.109C133.303 283.734 133.833 280.626 133.985 277.62C134.137 274.638 133.96 271.606 134.592 268.676C135.678 263.673 137.093 258.898 140.96 255.664C147.151 250.484 159.534 247.427 166.281 253.188C167.519 254.249 167.747 255.083 169.414 255.234C171.638 255.462 173.079 255.74 175.075 256.876C177.299 258.165 179.978 259.959 179.649 262.864C179.422 264.886 177.147 268.044 175.429 269.004C174.696 269.408 173.862 269.535 173.053 269.535C170.425 269.585 168.252 267.867 165.674 268.145C164.411 268.271 163.223 268.953 162.44 269.939C161.505 271.076 161.631 272.693 160.544 273.754C158.801 275.472 156.097 275.32 154.05 276.457C153.696 276.634 153.368 276.862 153.165 277.19C152.963 277.519 152.963 277.923 152.938 278.302C152.887 279.388 152.862 280.475 152.812 281.561C151.801 281.106 151.674 279.666 150.841 278.933C150.032 278.226 148.693 278.428 147.884 279.136C147.075 279.843 146.671 280.904 146.469 281.965C146.216 283.229 146.646 284.568 147.05 285.856C147.732 288.08 149.628 290.05 151.144 288.61C152.256 290.252 151.043 292.981 150.992 294.826C150.967 296.291 150.992 299.197 152.357 300.157C153.62 301.041 155.617 300.359 155.693 302.658C155.768 304.755 153.671 306.372 151.599 306.625C149.526 306.877 147.48 306.145 145.483 305.563C143.487 304.957 141.288 304.502 139.342 305.26C138.155 305.715 137.144 306.599 135.88 306.801C134.667 306.978 133.53 306.549 132.469 305.968Z" fill="#5045AF"/>
<path d="M76.09 326.585C76.09 326.585 68.7867 320.748 68.3066 319.131C67.8012 317.539 67.7001 315.821 67.0936 314.255C66.2091 311.981 64.2886 310.162 62.0395 309.227C60.22 308.469 61.1045 307.863 59.1586 308.242C56.202 308.823 54.8121 311.703 53.6243 313.977C48.5955 323.628 62.368 325.448 62.8734 325.473C63.8842 325.523 69.0142 331.335 69.0142 331.335" fill="#FFB9B0"/>
<path d="M53.0684 321.935L58.0719 325.271C58.729 325.7 59.6135 325.498 60.0178 324.841L70.9852 306.473L64.4907 302.809L52.7146 320.041C52.2597 320.647 52.4366 321.506 53.0684 321.935Z" fill="#8484EF"/>
<path d="M35.2273 282.925L36.9457 284.087L43.8951 273.956L42.1767 272.794C39.7255 271.126 36.1876 272.036 34.267 274.84C32.3464 277.645 32.776 281.258 35.2273 282.925Z" fill="#C4C4F7"/>
<path d="M28.8844 295.28L60.8517 300.131L68.1549 289.494L52.007 261.55L28.8844 295.28Z" fill="#C4C4F7"/>
<path d="M30.906 295.71L60.8517 300.131L63.7579 295.886L38.563 284.567L30.906 295.71Z" fill="#BBBBF2"/>
<path d="M73.9925 307.863C75.7109 309.025 78.1874 308.393 79.5267 306.422L80.8156 304.527C82.1549 302.582 81.8516 300.03 80.1585 298.868C78.4401 297.706 75.9636 298.337 74.6243 300.308L73.3354 302.203C71.9708 304.174 72.2741 306.7 73.9925 307.863Z" fill="#C4C4F7"/>
<path d="M74.6243 300.308L73.3355 302.203C71.9961 304.174 72.2994 306.7 73.9925 307.862C75.7109 309.025 78.1621 308.393 79.5268 306.422L80.8156 304.527C80.9166 304.376 80.9925 304.224 81.0683 304.073C79.6784 305.69 77.4546 306.17 75.8625 305.083C74.2705 303.997 73.9167 301.748 74.9275 299.878C74.8264 300.03 74.7253 300.182 74.6243 300.308Z" fill="#BBBBF2"/>
<path d="M27.823 296.316C28.8338 296.998 30.2742 296.619 31.0576 295.482L52.9926 263.521C53.7759 262.384 53.5991 260.893 52.6135 260.211C51.6027 259.529 50.1623 259.908 49.3789 261.045L27.4439 292.981C26.6605 294.143 26.8374 295.634 27.823 296.316Z" fill="#A4A4F7"/>
<path d="M53.1695 260.818L34.8988 287.422C34.1154 288.559 32.6497 288.938 31.6641 288.256C31.4367 288.105 31.2345 287.877 31.1082 287.65L27.4439 292.981C26.6605 294.118 26.8374 295.608 27.823 296.291C28.8338 296.973 30.2742 296.594 31.0576 295.457L52.9926 263.496C53.5991 262.662 53.6496 261.576 53.1695 260.818Z" fill="#8484EF"/>
<path d="M63.6568 305.715L65.729 307.13C68.7867 309.201 73.2091 308.064 75.5845 304.578L77.6314 301.571C80.0321 298.084 79.5015 293.562 76.4437 291.49L74.3715 290.075C71.3138 288.003 66.8914 289.14 64.516 292.627L62.469 295.634C60.0683 299.12 60.6243 303.643 63.6568 305.715Z" fill="#A4A4F7"/>
<path d="M62.5954 295.457L59.5124 299.954C58.7542 301.066 58.9311 302.481 59.8914 303.138L69.5195 309.707C70.4798 310.364 71.895 310.01 72.6531 308.898L75.7361 304.401C74.978 305.513 73.5881 305.867 72.6026 305.21L62.9744 298.641C61.9889 298.009 61.8373 296.569 62.5954 295.457Z" fill="#8484EF"/>
<path d="M54.1297 317.312C53.7254 314.507 54.3572 311.829 55.8987 309.808C56.4294 309.1 57.0611 308.494 57.6929 307.888C57.9962 307.585 58.3247 307.281 58.7796 307.18C59.4871 307.003 60.3716 307.281 61.1045 307.711C61.9131 308.166 62.6965 308.823 63.025 309.606C63.5557 310.92 62.646 312.006 61.6099 312.663C61.5088 312.739 61.3824 312.789 61.3572 312.916C61.3066 313.092 61.433 313.32 61.5341 313.522C61.9889 314.331 62.368 315.215 62.2669 316.023C62.1658 316.807 61.4835 317.463 60.5485 317.312C60.1694 317.261 59.664 317.11 59.5377 317.388C59.4871 317.489 59.5124 317.59 59.5377 317.716C59.6388 318.525 59.4366 319.283 58.9564 319.813C58.8301 319.94 58.7037 320.066 58.5016 320.116C58.35 320.142 58.1731 320.091 58.0214 320.041C57.4402 319.864 56.859 319.611 56.303 319.283" fill="#FFB9B0"/>
<path d="M68.2561 319.535C68.0792 318.474 67.7001 316.705 67.6496 315.619C67.5485 312.688 65.9817 309.757 63.4294 308.292C63.2272 308.166 62.9745 308.065 62.7471 308.09C62.4438 308.14 62.2417 308.444 62.1911 308.747C62.1406 309.05 62.2417 309.353 62.3175 309.656C62.6207 310.591 63.9348 312.334 63.5305 313.269C62.924 314.684 62.4438 316.251 62.4944 317.817C62.5449 319.207 63.1767 321.455 64.8193 321.683" fill="#FFB9B0"/>
<path d="M31.184 246.088L37.628 261.273" stroke="#C4C4F7" stroke-width="0.75" stroke-miterlimit="10" stroke-linecap="round" stroke-linejoin="round"/>
<path d="M17.7653 259.58L30.9565 269.459" stroke="#C4C4F7" stroke-width="0.75" stroke-miterlimit="10" stroke-linecap="round" stroke-linejoin="round"/>
<path d="M9.27435 277.948L25.6497 279.565" stroke="#C4C4F7" stroke-width="0.75" stroke-miterlimit="10" stroke-linecap="round" stroke-linejoin="round"/>
<path d="M534.449 118.395C534.449 118.395 528.561 114.252 528.359 112.508C528.157 110.765 524.038 103.69 522.724 102.301C521.409 100.886 514.511 98.511 513.045 98.2836C511.579 98.0815 503.114 98.7889 504.175 99.9511C505.236 101.113 510.695 100.684 511.756 101.315C512.817 101.947 512.817 101.947 512.817 101.947C512.817 101.947 511.756 103.362 512.186 104.246C512.615 105.105 510.391 106.444 511.225 107.91C512.059 109.375 510.897 109.274 511.63 110.815C512.868 113.342 516.052 114.757 516.886 114.075C517.518 115.565 519.944 118.648 522.193 118.42C524.467 118.218 529.951 123.372 529.951 123.372" fill="#FFB9B0"/>
<path d="M624.236 88.8594C624.438 92.8008 624.16 99.6984 625.297 100.709C626.434 101.72 630.073 101.568 630.073 101.568C630.073 101.568 617.008 118.092 615.846 117.182C614.683 116.273 599.218 103.69 602.705 103.033C606.167 102.377 609.579 102.528 609.478 100.734C609.376 98.9404 609.275 97.1465 609.174 95.3527" fill="#FFB9B0"/>
<path d="M639.12 177.062C639.12 177.062 613.622 179.968 607.759 180.069C601.896 180.195 602.174 177.138 602.174 177.138C601.871 170.67 600.784 155.46 599.571 150.306C598.434 145.48 597.929 143.711 596.943 139.138C594.745 128.956 594.846 127.036 592.521 114.479L607.759 102.25C607.759 102.25 609.326 106.924 615.719 107.025C624.261 107.127 626.914 101.164 626.914 101.164L647.687 114.959L649.633 148.486L647.156 176.102" fill="#FCA70C"/>
<path d="M624.514 85.2718C624.059 87.2678 623.452 89.2132 622.719 91.1334C621.38 94.6201 619.384 95.8834 615.694 95.9844C613.091 96.035 610.488 96.1108 607.886 96.1613C605.889 96.2118 603.413 96.2876 601.795 94.8727C600.203 93.4831 600.153 91.1334 599.799 89.2132C599.344 86.7624 598.965 84.2611 598.687 81.7851C598.131 76.9088 597.904 72.0073 598.005 67.1057C598.03 66.4235 598.03 65.7666 598.182 65.0845C598.232 64.8065 598.333 64.5286 598.51 64.3518C598.763 64.0991 599.117 64.0486 599.445 63.998C604.322 63.2401 609.275 62.9116 614.203 63.0632C617.691 63.1643 621.38 63.5685 624.135 65.6908C626.914 67.8384 628.228 71.3251 629.416 74.6349C629.618 75.1655 629.745 75.8729 629.29 76.2014" fill="#FFB9B0"/>
<path d="M567.351 267.968C567.351 267.968 568.185 273.046 568.868 274.764C569.55 276.508 575.236 274.891 575.615 273.779C575.994 272.667 573.821 264.406 573.821 264.406" fill="#ED9C80"/>
<path d="M577.586 275.219C578.066 277.089 578.698 280.677 578.698 280.677L573.012 283.153L572.077 282.268C572.077 282.268 570.662 283.986 568.918 284.795C567.629 285.401 564.824 286.159 563.409 286.311C558.456 286.841 554.792 285.907 554.489 285.224C553.25 282.344 559.846 281.586 561.16 281.232C564.925 280.247 566.998 277.064 567.402 274.992C567.68 273.476 567.326 273.223 568.16 273.274C568.16 273.274 568.893 273.223 569.575 273.931C570.637 275.017 572.203 275.497 573.619 274.866C574.427 274.512 575.185 273.956 575.64 273.198C575.64 273.198 577.081 273.35 577.586 275.219Z" fill="#38287C"/>
<path d="M592.47 201.722C583.575 203.466 572.431 203.592 563.46 202.404C564.723 205.992 567.806 210.616 568.969 215.694C572.835 232.42 574.175 254.907 575.16 268.828C575.16 268.828 573.29 272.39 567.351 269.687C558.456 247.706 542.915 203.162 543.066 193.511C543.243 181.206 573.972 178.25 596.463 175.219" fill="#453087"/>
<path d="M631.69 177.087C638.766 182.267 592.47 201.721 592.47 201.721C587.34 202.732 582.337 203.187 577.283 203.161C576.803 202.252 576.348 201.292 576.146 200.281C575.868 198.942 576.019 197.527 575.792 196.188C575.337 193.561 573.442 191.337 571.167 189.948C568.893 188.558 566.239 187.926 563.611 187.497C557.344 186.486 546.427 187.194 546.427 187.194C560.351 176.936 588.831 175.597 602.099 174.738C604.6 178.957 630.68 176.329 631.69 177.087Z" fill="#38287C"/>
<path d="M582.008 279.666C582.008 279.666 581.958 284.795 582.337 286.64C582.691 288.459 588.579 287.878 589.135 286.842C589.691 285.806 588.983 277.316 588.983 277.316" fill="#ED9C80"/>
<path d="M590.853 288.585C591.005 290.505 591.005 294.143 591.005 294.143L584.99 295.583L584.232 294.548C584.232 294.548 582.539 295.988 580.694 296.468C579.304 296.821 576.424 297.099 575.008 297.024C570.03 296.695 566.593 295.129 566.416 294.421C565.709 291.389 572.33 291.768 573.669 291.642C577.536 291.314 580.138 288.534 580.897 286.564C581.452 285.123 581.124 284.795 581.933 284.997C581.933 284.997 582.665 285.098 583.221 285.907C584.081 287.145 585.546 287.928 587.037 287.524C587.897 287.296 588.73 286.917 589.312 286.21C589.286 286.26 590.676 286.665 590.853 288.585Z" fill="#38287C"/>
<path d="M647.131 176.051C647.131 176.051 632.954 177.466 615.745 177.062C611.727 177.062 581.427 182.747 578.521 187.876C573.745 196.314 581.629 245.684 580.896 281.03C580.896 281.03 584.535 284.062 590.954 281.207C592.546 263.85 602.806 222.894 595.73 203.768C612.434 205.991 625.929 208.189 641.116 203.161C644.68 201.974 647.333 199.473 648.925 194.874C650.568 190.276 649.734 180.17 647.131 176.051Z" fill="#453087"/>
<path d="M607.759 102.225C607.759 102.225 604.12 102.427 603.413 102.478C600.38 102.73 597.272 103.109 594.416 104.171C590.297 105.712 587.366 109.527 584.005 112.534C580.77 115.414 563.99 131.407 560.857 131.988C557.723 132.569 530.254 113.746 530.254 113.746L523.557 120.442C523.557 120.442 553.352 147.981 562.247 148.032C566.568 148.057 590.348 135.525 597.954 130.674L607.759 102.225Z" fill="#FCA70C"/>
<path opacity="0.25" d="M562.323 142.777C556.207 143.13 528.131 121.68 524.871 119.178L523.583 120.467C523.583 120.467 553.377 148.007 562.272 148.057C565.86 148.082 582.969 139.391 593.001 133.681L595.604 132.19L594.062 122.943C594.012 122.918 568.842 142.423 562.323 142.777Z" fill="#CE4A30"/>
<path d="M533.741 181.559H601.972L589.741 141.69C589.059 139.492 587.037 137.976 584.738 137.976H524.998C522.723 137.976 521.081 140.199 521.738 142.372L533.741 181.559Z" fill="#A4A4F7"/>
<path d="M532.882 181.559H600.077L587.846 141.69C587.164 139.492 585.142 137.976 582.842 137.976H523.103C520.828 137.976 519.186 140.199 519.843 142.372L531.568 180.574C531.72 181.18 532.251 181.559 532.882 181.559Z" fill="#7A74D1"/>
<g opacity="0.25">
<path opacity="0.25" d="M637.781 121.452C634.395 136.814 633.788 148.815 632.828 159.78C620.9 164.404 616.048 171.301 604.398 176.481C604.398 176.481 595.174 174.94 594.214 178.426C593.658 180.422 605.005 182.014 605.005 182.014C615.821 182.065 644.326 174.156 646.246 173.626C648.167 173.095 653.802 136.864 654.03 117.208C654.055 114.403 653.954 111.396 652.21 109.198C651.301 108.061 650.012 107.278 648.698 106.596C641.091 102.705 635.456 101.644 626.94 101.113" fill="#CE4A30"/>
</g>
<path d="M605.99 178.856C604.702 177.239 602.377 177.012 600.304 177.062C598.788 177.087 597.247 177.214 595.756 177.416C595.073 177.517 594.265 177.669 594.214 178.426C594.138 179.184 597.55 178.426 599.344 178.932C595.832 179.235 592.319 179.336 588.806 179.21C588.402 179.184 587.972 179.184 587.593 179.336C587.214 179.488 586.886 179.841 586.911 180.271C586.936 180.599 587.164 180.852 587.391 181.079C588.377 181.964 589.716 182.317 591.03 182.545C596.413 183.48 602.073 183.328 607.052 181.13" fill="#FFB9B0"/>
<path d="M637.023 121.149C636.745 137.546 635.582 145.076 635.885 161.473C627.647 163.242 616.25 172.565 604.575 177.744C604.575 177.744 603.893 180.069 604.954 182.014C605.839 182.343 644.301 172.969 647.358 170.164C650.113 167.638 653.752 136.864 653.979 117.208C654.004 114.403 653.903 111.396 652.16 109.198C651.25 108.061 649.961 107.278 648.647 106.596C641.041 102.705 635.405 101.644 626.889 101.113" fill="#FCA70C"/>
<path opacity="0.45" d="M567.554 160.463C567.806 163.949 563.662 166.804 558.33 166.804C552.998 166.804 548.449 163.974 548.221 160.463C547.969 156.976 552.113 154.121 557.445 154.121C562.777 154.121 567.301 156.976 567.554 160.463Z" stroke="#A4A4F7" stroke-miterlimit="10"/>
<path d="M564.029 160.738C564.104 158.8 561.419 157.121 558.03 156.989C554.641 156.857 551.833 158.321 551.757 160.259C551.681 162.197 554.367 163.875 557.756 164.007C561.145 164.14 563.953 162.676 564.029 160.738Z" fill="#A4A4F7"/>
<path d="M612.485 74.7865C612.358 74.1802 610.994 74.0538 609.629 74.2307C608.265 74.4076 604.6 74.8623 603.868 75.4434C603.109 76.0246 603.16 76.4541 602.756 76.5046C602.377 76.5551 602.326 76.1256 601.467 75.7466C600.608 75.3676 598.485 75.6203 597.12 75.7972C595.756 75.974 594.442 76.2772 594.492 76.9089C594.517 77.5405 594.77 78.6269 595.048 78.8038C595.326 78.9806 595.326 78.9554 596.413 81.4314C597.019 82.821 597.929 83.6043 599.698 83.2253C601.947 82.7452 602.099 80.1681 602.275 79.107C602.452 78.0458 602.604 77.869 602.958 77.8437C603.312 77.7932 603.539 77.9195 603.969 78.9048C604.398 79.8902 604.727 82.1894 607.026 82.3157C610.059 82.4926 611.348 81.4567 611.777 79.5112C612.333 76.8836 612.207 76.8836 612.434 76.6309C612.535 76.5299 614.683 76.8331 614.683 76.8331L614.633 76.0498C614.608 75.9993 612.535 74.9381 612.485 74.7865ZM601.517 80.0671C601.442 81.4061 600.784 82.6442 599.293 82.821C597.904 82.9979 597.272 82.2652 596.514 80.4966C595.857 78.9554 595.831 77.7174 596.059 77.2878C596.286 76.8583 597.044 76.8836 598.763 76.7573C600.481 76.6309 601.062 76.6057 601.34 77.3636C601.467 77.6668 601.593 78.728 601.517 80.0671ZM611.373 78.6269C611.095 80.5218 610.387 81.4567 608.492 81.6841C605.813 82.0125 605.283 80.9514 604.878 79.6628C604.474 78.3743 604.348 77.3131 604.373 77.0099C604.449 76.2014 605.03 76.1004 606.723 75.7719C608.416 75.4434 610.691 75.0645 611.019 75.4182C611.348 75.7719 611.626 76.9594 611.373 78.6269Z" fill="#483A99"/>
<path d="M630.73 70.5924C630.579 69.2028 630.326 67.8384 629.972 66.5499C629.062 63.0127 626.889 60.0313 623.68 58.288C619.561 56.0646 613.925 55.6098 609.427 56.8731C606.824 57.6058 605.839 58.9702 604.499 58.9449C603.463 58.9197 602.174 58.2122 600.86 57.7322C590.651 54.0686 592.369 64.0486 593.456 66.8026C593.936 68.0153 596.261 68.8996 596.564 69.4049C596.868 69.9102 596.842 72.3863 597.044 73.4727C597.247 74.5591 598.308 74.9634 598.308 74.9634C598.308 74.9634 598.359 71.7546 598.409 71.3251C598.535 70.1882 598.914 69.0007 599.925 68.3185C600.961 67.6111 602.377 67.51 603.59 67.2826C604.853 67.0552 610.716 68.1922 611.095 68.5206C612.99 70.1629 613.496 73.877 614.026 76.0751C614.279 77.111 614.532 77.7931 614.961 77.7679C615.29 74.7613 616.326 74.6602 618.12 75.6961C619.08 76.2519 619.636 78.1469 619.662 79.7891C619.712 81.7093 618.626 83.8316 616.629 84.2359C615.896 84.3875 618.07 88.5058 619.08 89.5417C619.409 89.8701 619.737 90.2239 620.142 90.4765C620.521 90.7039 620.95 90.805 621.38 90.9313C621.86 91.0576 622.34 91.184 622.846 91.3356C623.503 91.5124 624.185 91.6893 624.842 91.5124C625.929 91.2092 626.485 90.0723 626.965 89.0616C627.774 87.4194 628.683 85.8024 629.34 84.0843C630.831 80.0165 631.261 75.115 630.73 70.5924Z" fill="#483A99"/>
<path d="M814.549 221.757H685.416L700.881 210.312V154.475C700.881 149.826 704.647 146.036 709.322 146.036H814.549C819.199 146.036 822.989 149.8 822.989 154.475V213.318C822.989 217.967 819.224 221.757 814.549 221.757Z" fill="#D5D2FF"/>
<path opacity="0.45" d="M811.769 156.925H752.762V162.56H811.769V156.925Z" fill="white"/>
<path opacity="0.45" d="M811.769 165.364H752.762V170.998H811.769V165.364Z" fill="white"/>
<path opacity="0.45" d="M811.769 173.803H752.762V179.437H811.769V173.803Z" fill="white"/>
<path opacity="0.45" d="M811.769 182.014H752.762V187.648H811.769V182.014Z" fill="white"/>
<path opacity="0.45" d="M793.928 191.843H752.762V197.477H793.928V191.843Z" fill="white"/>
<path d="M739.571 200.256H719.607C714.882 200.256 711.04 196.416 711.04 191.691V165.49C711.04 160.766 714.882 156.925 719.607 156.925H739.571C744.297 156.925 748.138 160.766 748.138 165.49V191.716C748.138 196.441 744.297 200.256 739.571 200.256Z" fill="#A9ADFF"/>
<path opacity="0.45" d="M748.138 205.663H711.065V210.312H748.138V205.663Z" fill="white"/>
<path d="M733.253 185.046H719.809C719.051 185.046 718.394 184.541 718.192 183.808L715.614 174.258C715.336 173.196 716.12 172.135 717.232 172.135H735.856C736.968 172.135 737.777 173.196 737.473 174.258L734.896 183.808C734.668 184.541 734.011 185.046 733.253 185.046Z" fill="#E8E6FF"/>
<path d="M735.629 187.194H719.43C719.253 187.194 719.102 187.042 719.102 186.865C719.102 186.688 719.253 186.537 719.43 186.537H735.376L741.011 166.88C741.062 166.729 741.188 166.627 741.34 166.627H744.852C745.029 166.627 745.181 166.779 745.181 166.956C745.181 167.133 745.029 167.284 744.852 167.284H741.567L735.932 186.966C735.907 187.093 735.78 187.194 735.629 187.194Z" fill="#E8E6FF"/>
<path d="M721.907 189.847C721.907 190.933 721.022 191.817 719.936 191.817C718.849 191.817 717.965 190.933 717.965 189.847C717.965 188.76 718.849 187.876 719.936 187.876C721.022 187.876 721.907 188.76 721.907 189.847Z" fill="#E8E6FF"/>
<path d="M734.188 191.817C735.277 191.817 736.159 190.935 736.159 189.847C736.159 188.758 735.277 187.876 734.188 187.876C733.1 187.876 732.217 188.758 732.217 189.847C732.217 190.935 733.1 191.817 734.188 191.817Z" fill="#E8E6FF"/>
<path d="M334.861 143.762H499.373L479.662 129.183V39.2123C479.662 33.2748 474.861 28.4744 468.922 28.4744H334.861C328.923 28.4744 324.121 33.2748 324.121 39.2123V133.024C324.121 138.961 328.923 143.762 334.861 143.762Z" fill="#D5D2FF"/>
<g opacity="0.45">
<path opacity="0.45" d="M338.42 52.3311L413.6 52.3311V45.1303L338.42 45.1303V52.3311Z" fill="white"/>
<path opacity="0.45" d="M338.42 63.0835L413.6 63.0835V55.8828L338.42 55.8828V63.0835Z" fill="white"/>
<path opacity="0.45" d="M338.42 73.8359L413.6 73.8359V66.6352L338.42 66.6352V73.8359Z" fill="white"/>
<path opacity="0.45" d="M338.42 84.2905L413.6 84.2905V77.0898L338.42 77.0898V84.2905Z" fill="white"/>
<path opacity="0.45" d="M338.42 94.77L413.6 94.77V87.5693L338.42 87.5693V94.77Z" fill="white"/>
<path opacity="0.45" d="M338.42 113.795L413.6 113.795V106.595L338.42 106.595V113.795Z" fill="white"/>
<path opacity="0.45" d="M338.41 125.11L466.735 125.11V117.909L338.41 117.909V125.11Z" fill="white"/>
</g>
<path d="M430.411 100.355H455.833C461.847 100.355 466.724 95.4792 466.724 89.4659V56.0394C466.724 50.0262 461.847 45.1499 455.833 45.1499H430.411C424.396 45.1499 419.519 50.0262 419.519 56.0394V89.4659C419.494 95.4792 424.371 100.355 430.411 100.355Z" fill="#C4C4F7"/>
<path opacity="0.45" d="M419.503 113.164H466.734V107.226H419.503V113.164Z" fill="white"/>
<path d="M715.362 617.469C755.403 617.469 787.863 614.053 787.863 609.838C787.863 605.624 755.403 602.208 715.362 602.208C675.32 602.208 642.86 605.624 642.86 609.838C642.86 614.053 675.32 617.469 715.362 617.469Z" fill="#EAE6FF"/>
<path d="M676.47 598.999C675.864 600.187 672.958 602.916 668.914 604.735C664.871 606.529 656.304 607.388 661.08 608.979C665.831 610.571 671.391 609.611 674.196 609.156C677.001 608.701 679.73 608.651 683.041 608.626C687.412 608.6 687.438 608.322 686.856 603.396C685.997 596.599 678.416 595.159 676.47 598.999Z" fill="#9AA3F4"/>
<path d="M755.618 596.549C755.365 597.913 757.311 602.057 753.849 605.114C750.387 608.146 742.477 611.354 747.708 611.481C752.939 611.607 757.943 610.394 760.621 609.08C763.275 607.767 761.152 605.695 764.463 604.659C768.809 603.295 767.899 600.086 765.65 598.115C762.744 591.571 756.401 592.102 755.618 596.549Z" fill="#9AA3F4"/>
<path d="M738.964 458.573C738.964 458.573 749.376 427.976 719.835 402.761C719.835 402.761 704.015 409.052 691.329 409.81C681.347 410.416 676.268 409.481 676.268 409.481C676.268 409.481 675.434 436.667 675.384 451.321L738.964 458.573Z" fill="#4A41A3"/>
<path d="M673.008 509.382C672.427 495.688 687.286 497.482 692.744 507.714C704.066 528.862 688.575 577.524 686.528 600.591C684.405 601.425 680.842 602.057 678.694 601.071C677.228 600.389 676.42 598.545 676.42 598.545C676.748 570.298 673.615 524.036 673.008 509.382Z" fill="#4A41A3"/>
<path d="M692.239 511.454C690.521 517.038 671.593 522.924 673.134 502.586C673.817 493.566 675.636 443.767 675.99 438.966C676.344 434.166 677.152 427.142 679.452 426.283C691.051 421.912 711.596 437.072 708.539 455.111C706.492 467.138 695.777 499.882 692.239 511.454Z" fill="#4A41A3"/>
<path d="M722.058 519.236C717.484 506.325 732.369 504.051 740.784 512.01C760.546 530.63 761.304 574.517 766.156 597.155C763.401 599.025 759.055 599.707 757.513 599.631C755.896 599.555 755.163 598.418 755.163 598.418C747.127 571.283 726.936 533.031 722.058 519.236Z" fill="#4A41A3"/>
<path d="M741.593 515.016C742.098 520.827 726.329 532.854 720.113 513.424C717.358 504.809 705.557 453.898 704.066 449.325C702.6 444.752 703.004 435.277 704.824 433.61C713.947 425.196 734.517 432.599 738.434 450.462C741.087 462.388 740.531 502.964 741.593 515.016Z" fill="#4A41A3"/>
<path d="M660.272 292.122C660.802 291.566 661.358 290.985 661.839 290.379C665.579 285.604 666.135 281.359 669.597 275.8C670.102 274.992 670.784 272.895 672.124 270.975C673.514 268.979 676.875 266.831 677.759 266.351C679.376 265.492 677.986 269.08 677.986 269.08C677.986 269.08 679.351 267.084 680.69 267.235C681.196 267.286 681.297 270.343 681.297 270.848C681.373 275.017 680.387 279.211 678.467 282.925C678.012 283.784 677.506 284.694 677.506 285.679C678.745 285.654 679.781 284.795 680.766 284.062C681.752 283.33 683.015 282.673 684.178 283.077C684.026 283.582 683.773 284.037 683.521 284.492C682.055 287.271 680.387 290.227 677.532 291.566C675.838 292.375 673.867 292.526 672.2 293.385C669.218 294.977 667.752 298.666 664.719 300.157" fill="#F2A181"/>
<path d="M678.037 293.183L669.116 289.444C668.282 289.09 667.903 288.13 668.232 287.297L676.167 268.347C676.521 267.513 677.481 267.135 678.315 267.463L687.235 271.202C688.069 271.556 688.448 272.516 688.12 273.35L680.185 292.299C679.831 293.158 678.871 293.537 678.037 293.183Z" fill="#5E5DBB"/>
<path d="M687.637 272.785L677.635 268.602L669.434 288.206L679.436 292.389L687.637 272.785Z" fill="#B4B4DB"/>
<path d="M687.615 311.476C687.615 311.476 679.983 311.88 673.16 313.927C662.875 317.009 659.337 321.784 655.773 323.755C662.672 314.988 670.38 296.392 670.38 296.392C670.38 296.392 661.106 288.762 660.044 290.581C658.983 292.375 620.041 337.954 621.254 345.332C621.759 348.364 626.257 351.37 630.25 351.244C641.293 350.865 654.106 346.848 667.55 342.452C673.463 340.506 675.282 344.675 675.282 344.675" fill="#7A74D1"/>
<path d="M655.773 323.73C655.773 323.73 650.871 333.609 649.405 334.265C647.94 334.922 652.968 332.219 655.748 329.364C658.503 326.509 662.293 319.03 662.293 319.03C660.827 319.611 655.773 323.73 655.773 323.73Z" fill="#6960C4"/>
<path d="M671.163 275.851C671.643 276.18 671.77 276.836 671.846 277.418C672.174 279.616 672.503 281.915 671.643 283.961C671.087 285.275 670.077 286.387 669.015 287.322C667.802 288.383 666.438 289.318 664.997 290.076" fill="#F2A181"/>
<path d="M687.842 259.403C685.239 260.161 683.874 263.521 682.99 265.821C681.929 268.6 681.398 271.531 681.044 274.461C680.791 276.508 680.665 278.656 681.474 280.55C681.878 281.511 682.535 282.37 683.167 283.203C683.521 283.683 683.9 284.163 684.38 284.492C684.86 284.82 685.517 284.997 686.073 284.77C686.882 284.467 687.21 283.507 687.438 282.673C688.929 277.215 690.571 271.682 693.654 266.932" fill="#170D54"/>
<path d="M684.961 276.685C684.911 274.942 683.091 273.805 681.499 275.624C680.185 277.114 679.831 279.944 679.755 282.041C679.654 284.542 681.6 285.048 683.192 285.376" fill="#F2A181"/>
<path d="M667.575 320.445C670.784 316.756 680.968 310.692 694.589 311.122C703.965 311.425 729.538 312.966 732.394 319.232C733.86 322.441 735.426 355.286 733.279 366.631C731.661 375.145 727.567 396.242 727.567 401.346C727.567 406.449 730.297 408.622 729.033 410.088C726.177 413.398 706.618 414.787 697.445 414.787C689.282 414.787 675.358 412.614 674.651 409.987C673.615 406.096 676.243 406.247 676.597 402.18C676.95 398.112 677.987 371.659 676.496 367.338C673.792 359.531 672.478 346.797 670.33 341.011C668.687 336.666 664.366 324.134 667.575 320.445Z" fill="#7A74D1"/>
<path d="M726.102 347.025C727.087 349.046 733.683 359.683 733.683 359.683L733.961 360.946C733.809 363.144 733.582 365.089 733.279 366.631C731.661 375.145 727.567 396.242 727.567 401.346C727.567 406.449 730.196 408.521 729.033 410.088C726.784 413.145 689.914 420.017 691.708 411.477C691.86 410.694 722.665 387.222 722.817 386.439C724.232 379.693 725.47 374.842 726.102 369.941C727.593 358.116 725.141 345.003 726.102 347.025Z" fill="#6960C4"/>
<path d="M687.185 299.374C687.185 299.374 687.109 310.061 686.679 310.49C686.25 310.92 684.127 311.931 684.127 311.931C684.127 311.931 685.643 321.228 687.968 320.521C690.293 319.839 705.658 312.057 705.658 312.057C705.658 312.057 703.484 311.173 703.484 310.314C703.484 309.455 705.557 292.653 705.557 292.653" fill="#FFBE9D"/>
<path d="M697.849 260.565C695.6 261.172 689.712 259.959 688.069 262.41C686.452 264.861 685.012 270.748 684.405 272.39C683.192 275.624 682.409 279.085 681.524 282.446C680.362 286.791 678.467 294.775 682.737 298.413C683.95 299.449 684.506 299.803 686.023 300.081C688.044 300.435 690.041 300.864 692.062 301.218C695.196 301.774 698.658 302.431 701.766 301.42C705.911 300.081 708.185 294.371 709.246 290.505L715.362 268.322L697.849 260.565Z" fill="#FFBE9D"/>
<path d="M686.806 324.69C686.806 324.69 685.896 366.403 684.203 391.77L690.344 400.234L694.564 389.648C694.564 389.648 696.333 359.051 690.571 324.993L686.806 324.69Z" fill="#3B2E7A"/>
<path d="M685.391 321.026L685.542 321.607C685.82 322.694 686.25 323.729 686.806 324.69L690.571 324.967C690.571 324.967 693.124 323.628 693.477 322.188C693.806 320.748 689.282 318.398 689.282 318.398L688.726 318.626C687.463 319.131 686.326 319.94 685.441 320.976L685.391 321.026Z" fill="#3B2E7A"/>
<path d="M703.737 307.711C703.737 307.711 706.138 309.202 708.033 312.057C706.087 316.478 701.715 324.336 696.914 327.924C694.665 321.885 689.282 318.373 689.282 318.373C689.282 318.373 702.398 316.074 703.737 307.711Z" fill="white"/>
<path d="M689.257 318.399C689.257 318.399 684.557 320.268 681.777 325.523C681.777 325.523 680.867 318.424 682.788 312.309C682.788 312.309 685.871 308.368 686.932 308.292C686.503 313.32 689.257 318.399 689.257 318.399Z" fill="white"/>
<path d="M689.864 411.502C685.188 412.21 683.47 413.928 680.842 416.53C680.615 416.732 680.412 417.01 680.438 417.314C680.488 417.693 680.943 417.844 681.297 417.92C683.47 418.274 683.824 416.884 685.846 416.05C687.21 415.469 688.575 414.888 689.939 414.307" fill="#F2A181"/>
<path d="M674.019 377.545L690.546 430.477C691.001 431.892 690.192 433.13 688.802 433.13L654.333 436.162C653.095 436.162 651.831 435.202 651.452 433.938L633.687 381.815C633.232 380.4 635.304 378.354 636.669 378.354L671.138 375.322C672.376 375.297 673.64 376.257 674.019 377.545Z" fill="#E9E6FF"/>
<path d="M672.882 378.91L689.181 431.033C689.636 432.448 688.827 433.686 687.438 433.686L652.968 436.718C651.73 436.718 650.467 435.757 650.088 434.494L633.788 382.371C633.333 380.956 634.142 379.718 635.532 379.718L670.001 376.686C671.239 376.686 672.503 377.646 672.882 378.91Z" fill="#E0D9FF"/>
<path d="M645.362 377.217L646.575 381.79L662.698 380.375L661.384 375.827L645.362 377.217Z" fill="white"/>
<path d="M648.42 372.972C648.748 374.033 650.037 378.152 650.037 378.152L657.745 377.444L656.127 372.265C655.42 370.041 653.145 368.399 651.023 368.576C648.875 368.778 647.712 370.749 648.42 372.972ZM650.113 372.871C649.734 371.633 650.366 370.521 651.553 370.42C652.741 370.319 654.03 371.229 654.409 372.492C654.788 373.73 654.156 374.842 652.969 374.943C651.781 375.044 650.492 374.134 650.113 372.871Z" fill="white"/>
<path d="M702.979 407.814C699.365 408.572 689.737 411.452 688.701 411.932C687.488 412.513 683.495 415.52 682.56 416.48C678.921 420.118 680.791 421.811 679.351 426.738C679.275 426.99 679.275 427.243 679.25 427.521C679.25 428.026 679.932 428.481 680.64 428.001C681.019 428.633 682.131 428.254 682.687 427.546C682.687 428.052 683.369 428.355 684.481 427.723C685.087 427.395 684.961 427.42 686.351 426.182C687.337 425.298 688.499 424.59 690.268 423.807C691.456 423.276 692.997 422.771 694.084 422.064C695.549 421.104 698.152 420.876 699.441 416.682C699.719 415.747 700.629 415.191 701.463 414.686C703.434 413.448 705.38 412.21 707.351 410.997" fill="#FFBE9D"/>
<path d="M725.217 340.001C726.759 345.458 733.127 383.357 733.127 383.357L697.192 409.38L700.174 417.238C700.174 417.238 743.159 402.811 746.546 392.932C749.932 383.079 749.78 338.51 737.827 322.87C734.037 317.893 726.405 315.392 726.405 315.392" fill="#7A74D1"/>
<path d="M688.347 421.457C687.412 422.367 686.351 423.125 685.593 424.11C684.784 425.096 684.001 426.157 682.939 426.965C683.571 425.803 684.253 424.717 685.138 423.731C685.568 423.226 686.098 422.771 686.654 422.443C687.21 422.038 687.791 421.76 688.347 421.457Z" fill="#F2A181"/>
<path d="M686.376 419.057C685.744 419.587 685.315 420.295 684.835 420.927C684.405 421.609 683.874 422.266 683.596 422.973C682.939 424.489 682.105 425.929 681.044 427.192C681.6 425.626 682.358 424.186 683.04 422.72C683.42 421.912 683.925 421.28 684.481 420.649C685.037 420.068 685.643 419.436 686.376 419.057Z" fill="#F2A181"/>
<path d="M684.102 417.137C683.698 417.819 683.167 418.451 682.687 419.057C682.156 419.638 681.979 420.371 681.651 421.103L679.958 425.525C679.983 423.908 680.438 422.341 681.12 420.876C681.448 420.169 681.828 419.385 682.434 418.804C682.939 418.223 683.597 417.743 684.102 417.137Z" fill="#F2A181"/>
<path d="M711.546 286.64C710.131 285.806 709.069 284.947 708.134 286.286C707.654 286.993 707.351 287.979 706.517 288.231C705.683 288.484 704.824 287.726 704.622 286.892C704.419 286.058 704.672 285.174 704.925 284.366C705.481 282.547 706.062 280.727 706.618 278.908C707.174 277.114 707.73 275.169 707.022 273.451C706.669 272.567 706.012 271.859 705.304 271.253C702.979 269.257 699.921 268.271 696.914 267.665C693.907 267.059 690.824 266.73 687.892 265.821C686.654 265.442 685.441 264.936 684.456 264.103C682.864 262.763 682.055 260.641 682.03 258.544C682.004 256.447 682.712 254.426 683.799 252.632C684.026 253.339 684.329 254.047 684.708 254.678C685.062 253.718 685.643 252.834 686.351 252.101C687.235 256.978 707.806 255.361 712.632 257.508C715.968 258.999 718.723 259.984 718.622 265.391C718.723 265.745 719.001 265.997 719.279 266.25C722.235 268.954 723.524 272.263 723.878 277.165C724.333 283.153 720.845 289.646 717.409 294.598C716.549 295.836 716.069 296.721 714.856 297.63C713.643 298.54 711.546 298.995 710.08 298.717C708.589 298.439 705.658 298.565 705.632 297.049C705.607 295.963 707.932 294.042 708.564 293.158" fill="#3B2E7A"/>
<path d="M706.163 292.299C706.163 292.299 705.911 293.31 706.542 294.093C707.098 294.775 708.21 294.674 708.968 294.447C711.167 293.739 712.658 291.617 713.087 289.419C713.567 286.816 712.178 284.239 709.802 284.896C708.412 285.3 707.553 286.867 707.553 288.307" fill="#FFBE9D"/>
<path d="M687.185 300.283L693.781 301.496C693.781 301.496 691.582 303.972 687.084 303.972" fill="#F2A181"/>
<g opacity="0.3">
<g opacity="0.3">
<g opacity="0.3">
<path opacity="0.3" d="M168.682 187.067L177.526 191.539L173.104 180.675" fill="#3939D3"/>
</g>
<path opacity="0.3" d="M141.238 173.197C141.238 182.949 149.602 190.832 159.938 190.832C170.274 190.832 178.638 182.924 178.638 173.197C178.638 163.444 170.274 155.561 159.938 155.561C149.602 155.561 141.238 163.469 141.238 173.197Z" fill="#3939D3"/>
</g>
<path opacity="0.3" d="M155.364 167.411V180.018C155.364 181.029 156.476 181.66 157.335 181.155L168.252 174.839C169.137 174.333 169.137 173.07 168.252 172.539L157.335 166.223C156.451 165.743 155.364 166.4 155.364 167.411Z" fill="#FEFEFE"/>
</g>
<g opacity="0.3">
<g opacity="0.3">
<g opacity="0.3">
<path opacity="0.3" d="M780.737 321.253L771.892 325.7L776.314 314.836" fill="#3939D3"/>
</g>
<path opacity="0.3" d="M808.181 307.357C808.181 317.11 799.816 324.993 789.48 324.993C779.145 324.993 770.78 317.085 770.78 307.357C770.78 297.605 779.145 289.722 789.48 289.722C799.816 289.722 808.181 297.63 808.181 307.357Z" fill="#3939D3"/>
</g>
<g opacity="0.3">
<g opacity="0.3">
<g opacity="0.3">
<path opacity="0.3" d="M786.145 315.821C790.213 315.897 794.358 315.948 798.098 315.695C799.286 315.619 800.322 313.851 798.881 313.27C799.488 312.966 800.094 312.688 800.372 312.057C800.625 311.45 800.322 310.617 799.639 310.465C801.054 310.793 801.61 308.671 800.498 307.989C801.08 307.509 801.56 306.903 801.686 306.195C801.813 305.488 801.509 304.679 800.827 304.325C800.397 304.098 799.867 304.098 799.361 304.098C797.668 304.098 795.975 304.073 794.282 304.073C794.737 301.571 794.888 298.843 793.524 296.645C793.119 295.988 792.033 295.179 791.174 295.71C790.365 296.19 790.592 297.377 790.618 298.135C790.795 301.243 788.899 304.376 785.993 305.841C785.993 305.816 786.195 312.436 786.145 315.821Z" fill="#FEFEFE"/>
</g>
</g>
<path opacity="0.3" d="M784.679 305.816H778.513V315.821H784.679V305.816Z" fill="#FEFEFE"/>
</g>
</g>
<g opacity="0.3">
<g opacity="0.3">
<g opacity="0.3">
<path opacity="0.3" d="M497.705 168.118L504.15 161.145L495.305 162.888" fill="#3939D3"/>
</g>
<path opacity="0.3" d="M473.799 169.735C473.799 176.81 479.864 182.52 487.37 182.52C494.875 182.52 500.94 176.784 500.94 169.735C500.94 162.661 494.875 156.951 487.37 156.951C479.864 156.951 473.799 162.661 473.799 169.735Z" fill="#3939D3"/>
</g>
<g opacity="0.3">
<g opacity="0.3">
<g opacity="0.3">
<path opacity="0.3" d="M484.742 175.875C487.42 175.925 490.124 175.951 492.576 175.774C493.359 175.723 494.016 174.435 493.081 174.03C493.485 173.828 493.89 173.601 494.067 173.146C494.243 172.717 494.041 172.11 493.586 171.984C494.521 172.211 494.875 170.695 494.168 170.19C494.547 169.861 494.875 169.407 494.951 168.876C495.027 168.371 494.825 167.764 494.395 167.512C494.117 167.36 493.763 167.335 493.435 167.335C492.323 167.335 491.211 167.31 490.099 167.31C490.402 165.491 490.478 163.52 489.619 161.928C489.341 161.448 488.633 160.867 488.077 161.246C487.547 161.6 487.698 162.459 487.724 162.989C487.825 165.238 486.612 167.512 484.691 168.573C484.666 168.598 484.792 173.424 484.742 175.875Z" fill="#FEFEFE"/>
</g>
</g>
<path opacity="0.3" d="M483.781 168.598H479.738V175.849H483.781V168.598Z" fill="#FEFEFE"/>
</g>
</g>
<g opacity="0.3">
<path opacity="0.3" d="M560.857 74.5844C563.586 71.1735 565.229 66.8278 565.229 62.1284C565.229 51.0872 556.258 42.1179 545.214 42.1179C534.171 42.1179 525.2 51.0872 525.2 62.1284C525.2 73.1695 534.171 82.1388 545.214 82.1388C549.308 82.1388 553.124 80.9008 556.308 78.7785L564.066 82.8968L560.857 74.5844Z" fill="#3939D3"/>
<path opacity="0.3" d="M536.774 56.6456C538.695 54.7507 541.803 54.8012 543.673 56.7214L544.911 57.9847L546.2 56.7214C548.12 54.8265 551.203 54.8517 553.099 56.7719C554.994 58.6921 554.969 61.7998 553.048 63.6695L548.297 68.3436L548.272 68.3689C547.514 69.1016 546.579 69.5564 545.593 69.708C544.077 69.9354 542.51 69.4553 541.348 68.2931L536.673 63.5179C534.803 61.6482 534.853 58.5405 536.774 56.6456Z" fill="white"/>
</g>
<rect x="275.896" y="301.81" width="53.8139" height="20.7322" rx="7" fill="#FCA70C"/>
<rect x="275.896" y="326.698" width="53.8139" height="118.939" rx="7" fill="#ECF6FF"/>
<rect x="334.558" y="301.81" width="204.313" height="146.454" rx="7" fill="#ECF6FF"/>
<path opacity="0.4" fill-rule="evenodd" clip-rule="evenodd" d="M396.168 334.467H473.799L396.168 410.998V334.467Z" fill="#A4A4F7"/>
<path opacity="0.4" fill-rule="evenodd" clip-rule="evenodd" d="M396.168 334.467L473.249 410.998H396.168V334.467Z" fill="#A4A4F7"/>
</g>
<defs>
<linearGradient id="paint0_linear" x1="45.4041" y1="567.224" x2="1015.36" y2="386.558" gradientUnits="userSpaceOnUse">
<stop stop-color="#4388FC"/>
<stop offset="1" stop-color="#08CAFF"/>
</linearGradient>
<clipPath id="clip0">
<rect width="866" height="668" fill="white"/>
</clipPath>
</defs>
</svg>
