<svg width="78" height="80" viewBox="0 0 78 80" fill="none" xmlns="http://www.w3.org/2000/svg">
<g clip-path="url(#clip0)">
<path d="M40.9289 38.0236C40.3332 37.4127 39.3689 37.4127 38.7732 38.0236C38.1791 38.633 38.1791 39.622 38.7732 40.233C39.3689 40.8423 40.3332 40.8423 40.9289 40.233C41.523 39.622 41.523 38.633 40.9289 38.0236Z" fill="#F8B41D"/>
<path d="M60.3178 18.1358C57.341 15.0829 52.5221 15.0827 49.5451 18.1358C46.5761 21.181 46.576 26.1372 49.5456 29.1849C52.5157 32.2292 57.348 32.2305 60.3178 29.1845C63.2943 26.1317 63.2949 21.1891 60.3178 18.1358ZM58.1633 26.9747C56.382 28.8019 53.4823 28.8019 51.7 26.975C49.9184 25.1466 49.9182 22.1725 51.6997 20.3455C53.4856 18.5138 56.3771 18.5135 58.1633 20.3455C59.9492 22.1771 59.9496 25.1428 58.1633 26.9747Z" fill="#F8B41D"/>
<path d="M77.5534 0.457579C77.2542 0.150861 76.846 -0.0153887 76.4215 0.00101751C76.0771 0.0136737 67.8757 0.351798 58.1265 3.88601C50.3143 6.71507 43.8027 10.7655 38.7724 15.9249C37.6452 17.081 36.5484 18.3069 35.4989 19.5805C30.5252 16.5777 26.5396 17.5193 24.0199 18.9022C18.2186 22.0866 14.6277 30.7328 14.6277 36.9172C14.6281 37.5491 14.9994 38.1189 15.5685 38.3606C15.757 38.4408 15.955 38.4797 16.1513 38.4797C16.5478 38.4797 16.9374 38.3208 17.2288 38.022C20.2883 34.8841 24.062 35.0803 25.2948 35.2466L25.8283 35.7938C24.7783 38.3563 23.9325 40.9044 23.3122 43.3827C23.0882 44.2795 23.1638 45.2286 23.4967 46.0967C22.0299 46.79 20.6148 47.808 19.3826 49.0717C15.4611 53.0939 14.6648 62.8961 14.6329 63.3114C14.5978 63.7672 14.759 64.2159 15.0742 64.5392C15.3611 64.8332 15.7491 64.9968 16.1513 64.9968C16.1912 64.9968 16.2312 64.9953 16.2713 64.992C16.6762 64.9593 26.2337 64.1426 30.1551 60.1206C31.3868 58.8573 32.3792 57.4061 33.0551 55.902C33.9512 56.2634 34.8735 56.3079 35.7029 56.09C38.1181 55.4539 40.6022 54.5867 43.101 53.5097L43.6345 54.0569C43.7964 55.3214 43.9878 59.1918 40.9284 62.3295C40.4928 62.7764 40.3624 63.4484 40.5983 64.0322C40.8339 64.6161 41.3894 64.9967 42.0056 64.9967C48.0354 64.9967 56.4653 61.3137 59.5701 55.3636C60.9184 52.7797 61.8365 48.6919 58.9087 43.5905C60.1499 42.5145 61.3453 41.3895 62.473 40.233C67.5033 35.0736 71.4524 28.395 74.2107 20.3832C77.6567 10.3835 77.9863 1.97164 77.9986 1.61851C78.0138 1.18492 77.8525 0.764454 77.5534 0.457579ZM18.0338 33.5564C18.9801 28.8591 21.7289 23.7046 25.4582 21.6574C27.9504 20.2896 30.6745 20.4236 33.5708 22.0497C31.1033 25.3782 28.9582 28.9641 27.1701 32.7508C27.1474 32.7364 26.8732 32.3828 26.3638 32.265C26.1543 32.2164 22.1234 31.3272 18.0338 33.5564ZM28.0007 57.9108C25.906 60.0592 20.9921 61.1923 17.8863 61.655C18.3375 58.4693 19.4425 53.4297 21.5371 51.2814C22.7101 50.0783 24.0702 49.1661 25.4374 48.6523L30.564 53.9105C30.0631 55.3126 29.1739 56.7076 28.0007 57.9108ZM34.946 53.0628C34.5051 53.1786 33.9945 53.0086 33.6148 52.6198C31.644 50.5984 30.873 49.8076 30.631 49.5597C30.1874 49.1047 29.0995 47.9889 26.6966 45.5242C26.3167 45.1337 26.1509 44.6102 26.2635 44.1587C26.7515 42.2097 27.3896 40.21 28.1657 38.1911L40.7637 51.1122C38.795 51.9083 36.8456 52.5626 34.946 53.0628ZM56.8841 53.889C54.8881 57.7139 49.8626 60.5332 45.2828 61.5037C46.743 58.6854 47.0649 55.0978 46.5314 52.9223C46.4076 52.417 46.0861 52.163 46.0682 52.1331C49.7599 50.2992 53.256 48.0991 56.5016 45.5683C58.087 48.5392 58.2176 51.3334 56.8841 53.889ZM60.3188 38.0233C58.9461 39.4311 57.4679 40.7913 55.9252 42.0658C52.2169 45.1283 48.1353 47.7223 43.7807 49.7873L29.4574 35.097C31.4708 30.6305 34 26.4443 36.9856 22.6413C38.2293 21.058 39.5553 19.5418 40.9275 18.1346C45.4407 13.5055 51.2654 9.82147 58.2445 7.1696L71.0097 20.2621C68.4244 27.42 64.8325 33.3941 60.3188 38.0233ZM72.1058 16.9666L61.4576 6.04538C67.259 4.19726 72.306 3.50523 74.8251 3.25648C74.5824 5.84069 73.9076 11.0171 72.1058 16.9666Z" fill="white"/>
<path d="M36.6189 64.5386C36.0237 63.9284 35.0591 63.9287 34.4643 64.5389L30.1561 68.9592C29.5613 69.5695 29.5615 70.5589 30.1564 71.1689C30.7516 71.7789 31.7162 71.7789 32.311 71.1686L36.6192 66.7483C37.214 66.138 37.2138 65.1486 36.6189 64.5386Z" fill="#F8B41D"/>
<path d="M15.075 42.4422C14.4802 41.8319 13.5157 41.8319 12.9205 42.4419L8.61071 46.8606C8.01566 47.4706 8.01551 48.46 8.61025 49.0703C9.20485 49.6803 10.1693 49.6809 10.7647 49.0706L15.0745 44.6519C15.6695 44.0419 15.6697 43.0525 15.075 42.4422Z" fill="#F8B41D"/>
<path d="M25.847 66.7497C25.2524 66.1396 24.2876 66.1396 23.6926 66.7496L13.3729 77.3323C12.7778 77.9425 12.7778 78.9319 13.3727 79.542C13.9673 80.1522 14.9321 80.1525 15.5271 79.5422L25.8469 68.9594C26.4419 68.3492 26.4419 67.3599 25.847 66.7497Z" fill="#F8B41D"/>
<path d="M13.6596 66.7497C13.0649 66.1396 12.1001 66.1396 11.5052 66.7496L1.18544 77.3323C0.590391 77.9425 0.590391 78.9319 1.18529 79.542C1.77989 80.1522 2.74468 80.1525 3.33973 79.5422L13.6595 68.9594C14.2545 68.3492 14.2545 67.3599 13.6596 66.7497Z" fill="#F8B41D"/>
<path d="M12.919 53.4902C12.3243 52.8802 11.3595 52.8802 10.7646 53.4903L0.446371 64.0747C-0.148531 64.685 -0.148531 65.6742 0.446523 66.2845C1.04142 66.8947 2.00606 66.8947 2.60096 66.2844L12.9192 55.7C13.5141 55.0897 13.5141 54.1005 12.919 53.4902Z" fill="#F8B41D"/>
<path d="M47.3915 31.3936C46.7964 30.7835 45.8321 30.7835 45.2369 31.3936L43.0828 33.603C42.4879 34.2132 42.4879 35.2025 43.0828 35.8128C43.6778 36.423 44.6423 36.423 45.2374 35.8128L47.3915 33.6035C47.9864 32.9933 47.9864 32.0039 47.3915 31.3936Z" fill="#F8B41D"/>
</g>
<defs>
<clipPath id="clip0">
<rect width="78" height="80" fill="white"/>
</clipPath>
</defs>
</svg>
