<svg width="81" height="81" viewBox="0 0 81 81" fill="none" xmlns="http://www.w3.org/2000/svg">
<g clip-path="url(#clip0)">
<path d="M74.3555 45.5625C77.1514 45.5625 79.418 43.2959 79.418 40.5C79.418 37.7041 77.1514 35.4375 74.3555 35.4375C71.5595 35.4375 69.293 37.7041 69.293 40.5C69.293 43.2959 71.5595 45.5625 74.3555 45.5625Z" fill="#F8B41D"/>
<path d="M18.6677 50.6324H5.45437C3.31578 50.6324 1.58203 48.8986 1.58203 46.7599V34.2547C1.58203 32.1161 3.31578 30.3824 5.45437 30.3824H18.6677V50.6324Z" fill="#F8B41D"/>
<path d="M50.3083 46.0573C49.4347 46.0573 48.7262 46.7658 48.7262 47.6394V62.7666L20.2497 49.6202V31.394L48.7262 18.2346V33.4009C48.7262 34.2745 49.4347 34.983 50.3083 34.983C51.1819 34.983 51.8903 34.2745 51.8903 33.4009V15.7608C51.8903 15.2212 51.6153 14.7187 51.1607 14.4279C50.706 14.1373 50.1349 14.0984 49.6446 14.3248L18.3199 28.8004H5.45453C2.44693 28.8004 0 31.2472 0 34.2546V46.7599C0 49.7675 2.44693 52.2144 5.45453 52.2144H8.96221L13.7831 67.6294C13.9896 68.2898 14.6012 68.7394 15.293 68.7394H23.836C24.3394 68.7394 24.8126 68.4999 25.1108 68.0944C25.4088 67.6889 25.4963 67.1656 25.3459 66.6853L21.2422 53.5634L49.6452 66.6758C49.8564 66.7732 50.0827 66.8215 50.3081 66.8215C50.6059 66.8215 50.9023 66.7375 51.1608 66.5722C51.6153 66.2814 51.8903 65.7789 51.8903 65.2395V47.6394C51.8903 46.7656 51.182 46.0573 50.3083 46.0573ZM3.16406 46.7599V34.2546C3.16406 32.9918 4.19143 31.9643 5.45453 31.9643H17.0858V49.0502H5.45453C4.19143 49.0504 3.16406 48.023 3.16406 46.7599ZM16.456 65.5753L12.2775 52.2144H17.5052L21.6836 65.5753H16.456Z" fill="white"/>
<path d="M62.3317 38.918H57.2692C56.3956 38.918 55.6871 39.6264 55.6871 40.5C55.6871 41.3736 56.3956 42.082 57.2692 42.082H62.3317C63.2053 42.082 63.9137 41.3736 63.9137 40.5C63.9137 39.6264 63.2054 38.918 62.3317 38.918Z" fill="white"/>
<path d="M74.3555 33.8555C70.6916 33.8555 67.7109 36.8362 67.7109 40.5C67.7109 44.1638 70.6916 47.1445 74.3555 47.1445C78.0193 47.1445 81 44.1638 81 40.5C81 36.8362 78.0193 33.8555 74.3555 33.8555ZM74.3555 43.9805C72.4363 43.9805 70.875 42.4192 70.875 40.5C70.875 38.5808 72.4363 37.0195 74.3555 37.0195C76.2746 37.0195 77.8359 38.5808 77.8359 40.5C77.8359 42.4192 76.2746 43.9805 74.3555 43.9805Z" fill="white"/>
<path d="M62.3317 13.6055H57.2692C56.3956 13.6055 55.6871 14.3139 55.6871 15.1875C55.6871 16.0611 56.3956 16.7695 57.2692 16.7695H62.3317C63.2053 16.7695 63.9137 16.0611 63.9137 15.1875C63.9137 14.3139 63.2054 13.6055 62.3317 13.6055Z" fill="white"/>
<path d="M74.3555 21.832C78.0193 21.832 81 18.8513 81 15.1875C81 11.5237 78.0193 8.54297 74.3555 8.54297C70.6916 8.54297 67.7109 11.5237 67.7109 15.1875C67.7109 18.8513 70.6916 21.832 74.3555 21.832ZM74.3555 11.707C76.2746 11.707 77.8359 13.2683 77.8359 15.1875C77.8359 17.1067 76.2746 18.668 74.3555 18.668C72.4363 18.668 70.875 17.1067 70.875 15.1875C70.875 13.2683 72.4363 11.707 74.3555 11.707Z" fill="white"/>
<path d="M62.3317 64.2305H57.2692C56.3956 64.2305 55.6871 64.9389 55.6871 65.8125C55.6871 66.6861 56.3956 67.3945 57.2692 67.3945H62.3317C63.2053 67.3945 63.9137 66.6861 63.9137 65.8125C63.9137 64.9389 63.2054 64.2305 62.3317 64.2305Z" fill="white"/>
<path d="M74.3555 59.168C70.6916 59.168 67.7109 62.1487 67.7109 65.8125C67.7109 69.4763 70.6916 72.457 74.3555 72.457C78.0193 72.457 81 69.4763 81 65.8125C81 62.1487 78.0193 59.168 74.3555 59.168ZM74.3555 69.293C72.4363 69.293 70.875 67.7317 70.875 65.8125C70.875 63.8933 72.4363 62.332 74.3555 62.332C76.2746 62.332 77.8359 63.8933 77.8359 65.8125C77.8359 67.7317 76.2746 69.293 74.3555 69.293Z" fill="white"/>
<path d="M31.9153 38.3086C31.6185 38.012 31.2162 37.8453 30.7966 37.8453C30.3771 37.8453 29.9746 38.012 29.678 38.3086L24.2639 43.7228C23.6461 44.3406 23.6461 45.3423 24.2639 45.9603C24.5729 46.2691 24.9777 46.4237 25.3826 46.4237C25.7874 46.4237 26.1923 46.2691 26.5012 45.9603L30.7965 41.6649L34.2904 45.1588C34.9083 45.7765 35.9097 45.7765 36.5278 45.1588L42.4146 39.2721C42.5206 40.0429 43.1801 40.6371 43.98 40.6371C44.8536 40.6371 45.562 39.9286 45.562 39.055V35.4691C45.562 34.5955 44.8536 33.887 43.98 33.887H40.3942C39.5206 33.887 38.8121 34.5955 38.8121 35.4691C38.8121 36.2689 39.4065 36.9285 40.1771 37.0345L35.409 41.8026L31.9153 38.3086Z" fill="white"/>
<path d="M50.3086 38.9386C49.8925 38.9386 49.4844 39.1063 49.1901 39.4021C48.8943 39.6964 48.7266 40.1046 48.7266 40.5206C48.7266 40.9367 48.8943 41.3449 49.1901 41.6391C49.4844 41.9332 49.8925 42.1027 50.3086 42.1027C50.7247 42.1027 51.1328 41.9334 51.4269 41.6391C51.7212 41.3449 51.8906 40.9367 51.8906 40.5206C51.8906 40.103 51.7213 39.6964 51.4269 39.4021C51.1328 39.1061 50.7247 38.9386 50.3086 38.9386Z" fill="#F8B41D"/>
</g>
<defs>
<clipPath id="clip0">
<rect width="81" height="81" fill="white"/>
</clipPath>
</defs>
</svg>
