<svg width="68" height="68" viewBox="0 0 68 68" fill="none" xmlns="http://www.w3.org/2000/svg">
<path d="M62.6875 24.4375H66.9375V20.0047C66.9374 19.3744 66.7504 18.7583 66.4001 18.2342C66.0498 17.7101 65.5521 17.3017 64.9697 17.0605C64.3874 16.8193 63.7466 16.7562 63.1283 16.8791C62.5101 17.002 61.9422 17.3055 61.4964 17.7512L17.7512 61.4964C17.3055 61.9423 17.002 62.5102 16.8791 63.1286C16.7562 63.7469 16.8194 64.3878 17.0607 64.9702C17.3021 65.5526 17.7107 66.0503 18.2349 66.4005C18.7591 66.7507 19.3754 66.9375 20.0058 66.9375H63.75C64.5954 66.9375 65.4061 66.6016 66.0039 66.0039C66.6017 65.4061 66.9375 64.5953 66.9375 63.75V60.5625H62.6875C62.4057 60.5625 62.1355 60.4505 61.9362 60.2513C61.7369 60.052 61.625 59.7818 61.625 59.5C61.625 59.2182 61.7369 58.9479 61.9362 58.7487C62.1355 58.5494 62.4057 58.4375 62.6875 58.4375H66.9375V52.0625H62.6875C62.4057 52.0625 62.1355 51.9505 61.9362 51.7513C61.7369 51.552 61.625 51.2818 61.625 51C61.625 50.7182 61.7369 50.4479 61.9362 50.2487C62.1355 50.0494 62.4057 49.9375 62.6875 49.9375H66.9375V43.5625H62.6875C62.4057 43.5625 62.1355 43.4505 61.9362 43.2513C61.7369 43.052 61.625 42.7818 61.625 42.5C61.625 42.2182 61.7369 41.9479 61.9362 41.7487C62.1355 41.5494 62.4057 41.4375 62.6875 41.4375H66.9375V35.0625H62.6875C62.4057 35.0625 62.1355 34.9505 61.9362 34.7513C61.7369 34.552 61.625 34.2818 61.625 34C61.625 33.7182 61.7369 33.4479 61.9362 33.2487C62.1355 33.0494 62.4057 32.9375 62.6875 32.9375H66.9375V26.5625H62.6875C62.4057 26.5625 62.1355 26.4505 61.9362 26.2513C61.7369 26.052 61.625 25.7818 61.625 25.5C61.625 25.2182 61.7369 24.9479 61.9362 24.7487C62.1355 24.5494 62.4057 24.4375 62.6875 24.4375ZM56.3125 57.375H37.961C37.7509 57.3749 37.5455 57.3126 37.3708 57.1958C37.1961 57.0791 37.06 56.9132 36.9796 56.719C36.8992 56.5249 36.8782 56.3113 36.9191 56.1053C36.9601 55.8992 37.0613 55.7099 37.2098 55.5613L55.5613 37.2098C55.7099 37.0612 55.8992 36.9601 56.1053 36.9191C56.3114 36.8781 56.525 36.8992 56.7191 36.9796C56.9132 37.06 57.0791 37.1961 57.1959 37.3708C57.3126 37.5455 57.375 37.7509 57.375 37.961V56.3125C57.375 56.5943 57.2631 56.8645 57.0638 57.0638C56.8645 57.263 56.5943 57.375 56.3125 57.375Z" fill="#FCA70C"/>
<path d="M51.9137 9.70908C52.7533 8.69767 53.1837 7.40849 53.12 6.09556C53.0562 4.78263 52.5031 3.54118 51.5695 2.61583C50.5721 1.62132 49.221 1.06285 47.8125 1.06285C46.404 1.06285 45.0529 1.62132 44.0555 2.61583C43.8812 2.79539 38.8875 7.78277 38.9938 7.67545L37.1121 9.56245H13.8125C13.6727 9.56248 13.5343 9.59009 13.4053 9.64369C13.2762 9.6973 13.1589 9.77584 13.0602 9.87483L1.37275 21.5623C1.17491 21.762 1.06348 22.0314 1.0625 22.3125V50.9999C1.0625 51.8453 1.39832 52.6561 1.9961 53.2538C2.59387 53.8516 3.40462 54.1874 4.25 54.1874H51C51.8454 54.1874 52.6561 53.8516 53.2539 53.2538C53.8517 52.6561 54.1875 51.8453 54.1875 50.9999V12.75C54.1859 12.066 53.9639 11.4007 53.5543 10.8529C53.1447 10.3051 52.5694 9.90401 51.9137 9.70908ZM39.746 9.93008L41.2494 11.4325L15.5061 37.1747L14.0037 35.6723L39.746 9.93008ZM12.5598 37.2363L14.7539 39.4314L16.9501 41.6276L9.26394 44.9214L12.5598 37.2363ZM18.5098 40.1837L17.0085 38.6749C20.995 34.6895 39.5122 16.1712 42.7518 12.9316L44.2542 14.4351L18.5098 40.1837ZM45.7566 12.9359L41.2494 8.4277L43.1938 6.48333L47.7063 10.9905L45.7566 12.9359ZM50.0671 4.11714C50.6647 4.71489 51.0004 5.52549 51.0004 6.3707C51.0004 7.21591 50.6647 8.02652 50.0671 8.62427L49.2033 9.48701L44.6962 4.98095L45.5579 4.1182C45.8539 3.822 46.2054 3.58703 46.5922 3.42671C46.9791 3.2664 47.3937 3.18388 47.8125 3.18388C48.2313 3.18388 48.6459 3.2664 49.0328 3.42671C49.4196 3.58703 49.7711 3.822 50.0671 4.1182V4.11714ZM12.75 13.1866V21.25H4.68988L12.75 13.1866ZM52.0625 50.9999C52.0625 51.2817 51.9506 51.552 51.7513 51.7513C51.552 51.9505 51.2818 52.0624 51 52.0624H4.25C3.96821 52.0624 3.69796 51.9505 3.4987 51.7513C3.29944 51.552 3.1875 51.2817 3.1875 50.9999V23.375H13.8125C14.0943 23.375 14.3645 23.263 14.5638 23.0638C14.7631 22.8645 14.875 22.5942 14.875 22.3125V11.6875H34.9871L10.999 35.6723C10.9033 35.7682 10.8269 35.8814 10.7738 36.006L6.26875 46.5236C6.19948 46.6852 6.17139 46.8615 6.187 47.0366C6.20262 47.2118 6.26145 47.3803 6.35823 47.5271C6.455 47.6739 6.58669 47.7943 6.74149 47.8777C6.89629 47.9611 7.06936 48.0047 7.24519 48.0048C7.47868 47.9829 7.70606 47.9177 7.91562 47.8125H39.3125C41.0033 47.8125 42.6248 47.1408 43.8203 45.9453C45.0159 44.7497 45.6875 43.1282 45.6875 41.4375C45.6875 39.7467 45.0159 38.1252 43.8203 36.9296C42.6248 35.7341 41.0033 35.0625 39.3125 35.0625H31.875C31.5932 35.0625 31.323 35.1744 31.1237 35.3736C30.9244 35.5729 30.8125 35.8432 30.8125 36.125C30.8125 36.4067 30.9244 36.677 31.1237 36.8763C31.323 37.0755 31.5932 37.1875 31.875 37.1875H39.3125C40.4397 37.1875 41.5207 37.6352 42.3177 38.4322C43.1147 39.2293 43.5625 40.3103 43.5625 41.4375C43.5625 42.5646 43.1147 43.6456 42.3177 44.4427C41.5207 45.2397 40.4397 45.6875 39.3125 45.6875H12.8743L18.1794 43.4137C18.4854 43.2841 18.5629 43.1109 19.2631 42.4373L49.8631 11.8373C49.9195 11.7901 49.9734 11.7401 50.0246 11.6875H51C51.2818 11.6875 51.552 11.7994 51.7513 11.9987C51.9506 12.1979 52.0625 12.4682 52.0625 12.75V50.9999Z" fill="#0B77CF"/>
</svg>
