<svg width="62" height="62" viewBox="0 0 62 62" fill="none" xmlns="http://www.w3.org/2000/svg">
<g clip-path="url(#clip0)">
<path d="M61.9998 43.4C61.9998 36.6017 57.8345 30.7313 54.1589 25.5533L53.6763 24.8723C52.9577 23.8054 52.3204 22.6859 51.7698 21.5233L51.3741 20.7442C50.6208 19.2696 49.9088 17.7816 49.264 16.3339L49.1741 16.1221C49.008 15.711 48.8207 15.3088 48.613 14.9172C48.3488 14.425 47.9803 13.9965 47.5332 13.6617V4.13332C47.5332 1.85054 45.6826 -1.52588e-05 43.3998 -1.52588e-05H18.5998C16.3171 -1.52588e-05 14.4665 1.85054 14.4665 4.13332V8.41028C6.20256 9.44565 0.00208664 16.4714 0.00208664 24.8C0.00208664 33.1285 6.20256 40.1543 14.4665 41.1897V48.5667C14.4665 50.8494 16.3171 52.7 18.5998 52.7H29.6782C31.7903 54.2893 32.6149 57.165 32.9311 59.3237C33.1384 60.8553 34.4452 61.9984 35.9908 62H57.2362C58.3638 62.0015 59.4034 61.3905 59.9507 60.4046C60.498 59.4186 60.4668 58.2132 59.8691 57.257L58.9391 55.7711C57.9872 54.3073 58.0826 52.3978 59.1757 51.0363C60.9916 48.9055 61.9923 46.1995 61.9998 43.4ZM38.9482 2.06665L37.6235 3.48025C37.232 3.89637 36.6862 4.13263 36.1148 4.13332H25.8848C25.3136 4.13333 24.7679 3.89693 24.3772 3.48025L23.0525 2.06665H38.9482ZM2.0665 24.8C2.0665 16.8103 8.54344 10.3333 16.5332 10.3333C24.5229 10.3333 30.9998 16.8103 30.9998 24.8C31.0097 28.4646 29.6161 31.9939 27.1052 34.6632C26.8355 34.9499 26.7521 35.365 26.8903 35.7337C27.4757 37.3789 28.415 38.8756 29.642 40.1181C27.4803 40.4374 24.1447 40.5449 22.1204 38.7345C21.8429 38.4877 21.4543 38.4088 21.1026 38.5278C16.6911 39.9964 11.8425 39.2551 8.07135 36.5356C4.30015 33.816 2.06593 29.4495 2.0665 24.8ZM21.21 40.6575C22.9991 41.8603 25.126 42.4592 27.2798 42.3667C28.9875 42.3558 30.6862 42.1192 32.3318 41.663C32.7241 41.5456 33.0101 41.2075 33.0609 40.8012C33.1117 40.3948 32.9177 39.9968 32.5664 39.7864C30.98 38.7956 29.7515 37.3239 29.0603 35.5859C33.2808 30.6894 34.2594 23.7818 31.565 17.9057C28.8705 12.0295 22.9976 8.26359 16.5332 8.26665V4.13332C16.5332 2.99193 17.4584 2.06665 18.5998 2.06665H20.2191L22.8696 4.89282C23.6516 5.72543 24.7426 6.19838 25.8848 6.19999H36.1148C37.2571 6.19783 38.348 5.72542 39.1311 4.89385L41.7806 2.06665H43.3998C44.5412 2.06665 45.4665 2.99193 45.4665 4.13332V13.1719C45.4252 13.1771 45.3869 13.1719 45.3446 13.1781C43.6664 13.4457 42.5473 15.222 41.761 16.7359C40.2344 19.9729 40.0764 23.6885 41.3228 27.0434C42.0714 29.4458 43.2377 31.6974 44.768 33.6949C44.8165 33.7631 44.9302 33.9016 45.078 34.0545L45.2051 34.1971C45.3734 34.391 45.4662 34.639 45.4665 34.8957V43.4C45.4665 44.5414 44.5412 45.4667 43.3998 45.4667H18.5998C17.4584 45.4667 16.5332 44.5414 16.5332 43.4V41.3333C18.1165 41.3347 19.6918 41.1071 21.21 40.6575ZM30.0244 50.6333H18.5998C17.4584 50.6333 16.5332 49.708 16.5332 48.5667V46.9588C17.1587 47.3307 17.8721 47.529 18.5998 47.5333H43.3998C44.1276 47.529 44.841 47.3307 45.4665 46.9588V48.5667C45.4665 49.708 44.5412 50.6333 43.3998 50.6333H30.0244ZM57.1866 56.8643L58.1166 58.3513C58.3166 58.6705 58.3271 59.0733 58.1439 59.4025C57.9607 59.7317 57.6129 59.9351 57.2362 59.9333H35.9908C35.4764 59.9323 35.0425 59.5498 34.9771 59.0395C34.7068 56.7603 33.8788 54.5829 32.5664 52.7H43.3998C45.6826 52.7 47.5332 50.8494 47.5332 48.5667V34.8957C47.5317 34.1356 47.2558 33.4017 46.7561 32.829L46.6073 32.6647C46.537 32.5872 46.4761 32.5211 46.4213 32.4508C45.0288 30.633 43.9679 28.5839 43.2872 26.3975C42.5442 24.1066 41.9935 20.7359 43.5972 17.6865C44.5985 15.7563 45.2795 15.2768 45.6721 15.2138C45.8372 15.1784 46.0084 15.1852 46.1702 15.2334C46.4595 15.3798 46.6883 15.623 46.8171 15.9206C46.9896 16.2306 47.1353 16.584 47.2779 16.9208L47.3813 17.1554C48.0478 18.6496 48.7752 20.1717 49.5451 21.6814L49.9367 22.4502C50.5319 23.7057 51.2206 24.9147 51.9972 26.0669L52.4808 26.7468C55.9703 31.6758 59.9332 37.261 59.9332 43.4C59.9353 45.7177 59.1034 47.9587 57.5896 49.7137C55.924 51.7597 55.7615 54.6441 57.1866 56.8643Z" fill="#0B77CF"/>
<path d="M40.3 43.4001H42.3667C42.9374 43.4001 43.4 42.9374 43.4 42.3667C43.4 41.796 42.9374 41.3334 42.3667 41.3334H40.3C39.7293 41.3334 39.2667 41.796 39.2667 42.3667C39.2667 42.9374 39.7293 43.4001 40.3 43.4001Z" fill="#F19116"/>
<path d="M16.8351 35.0879C25.0067 32.5893 27.9 26.8284 27.9 22.6548C27.9 18.6434 25.1762 15.5 21.7 15.5C19.8204 15.499 17.9971 16.1415 16.5334 17.3207C15.0696 16.1415 13.2463 15.499 11.3667 15.5C7.89056 15.5 5.16669 18.6434 5.16669 22.6548C5.16669 26.8284 8.06002 32.5893 16.2316 35.0879C16.4282 35.1485 16.6385 35.1485 16.8351 35.0879ZM7.23336 22.6548C7.23336 20.15 8.78336 17.5667 11.3667 17.5667C13.0162 17.5546 14.599 18.2172 15.748 19.4008C15.9504 19.6211 16.2358 19.7465 16.5349 19.7465C16.834 19.7465 17.1194 19.6211 17.3218 19.4008C18.47 18.2179 20.0515 17.5554 21.7 17.5667C24.2834 17.5667 25.8334 20.15 25.8334 22.6548C25.8334 26.0731 23.3906 30.8047 16.5334 33.0171C9.67616 30.8047 7.23336 26.0731 7.23336 22.6548Z" fill="#F19116"/>
<path d="M15 17.5L16.5 18.5L17.5 17.5L20 17L23 16.5L24 17L25.5 18.5C26 19 26 20.5 26 21V23.5C26 23.9 25.6667 25.6667 25.5 26.5C24.8333 27.6667 23.5 30.1 23.5 30.5C23.5 30.9 21.1667 32.3333 20 33L17.5 33.5L15 33C14 32.5 11.9 31.5 11.5 31.5C11 31.5 8 28.5 7.5 28C7 27.5 6.5 26 6.5 25.5V22C6.5 21.6 7.16667 19.8333 7.5 19L9 17L11.5 16.5L15 17.5Z" fill="#F19116" stroke="#F19116"/>
</g>
<defs>
<clipPath id="clip0">
<rect width="62" height="62" fill="white"/>
</clipPath>
</defs>
</svg>
