<svg width="71" height="68" viewBox="0 0 71 68" fill="none" xmlns="http://www.w3.org/2000/svg">
<g clip-path="url(#clip0)">
<path d="M68.7473 63.8454L48.3613 4.20807C47.8662 2.75997 46.17 1.57465 44.5919 1.57465H36.895C35.3169 1.57465 34.4309 2.75997 34.926 4.20807L53.2425 57.7918C53.2431 57.7928 53.2431 57.7939 53.2436 57.7944L54.143 60.4252C55.3772 64.0385 58.8704 66.4788 62.807 66.4788H66.7782C68.3564 66.4788 69.2424 65.2935 68.7473 63.8454Z" fill="#F8B41D"/>
<path d="M27.0539 60.4246L27.9533 57.7933C27.9533 57.7927 27.9538 57.7917 27.9538 57.7912L35.9428 34.4203L39.4157 24.2604L46.2704 4.20746C46.7654 2.75936 45.8794 1.57404 44.3013 1.57404H36.637C35.0589 1.57404 33.3627 2.75936 32.8677 4.20746L12.4816 63.8453C11.9865 65.2934 12.8725 66.4787 14.4507 66.4787H18.3888C22.3259 66.4787 25.8186 64.0384 27.0539 60.4246Z" fill="white"/>
<path d="M70.1038 63.4117L49.7177 3.7749C49.0314 1.76666 46.7799 0.193631 44.5918 0.193631C44.5609 0.193631 27.2739 0.193115 27.2739 0.193115C25.0859 0.193115 22.8343 1.76615 22.1475 3.77438L1.76201 63.4117C1.38016 64.5284 1.52809 65.659 2.16736 66.5144C2.80663 67.3693 3.87101 67.8598 5.08705 67.8598H18.3888C22.9518 67.8598 26.9786 65.0462 28.4099 60.8583L35.9326 38.8514L43.4554 60.8583C44.8861 65.0462 48.9129 67.8598 53.4759 67.8598H66.7782C67.9948 67.8598 69.0586 67.3693 69.6979 66.5144C70.3377 65.659 70.4856 64.5284 70.1038 63.4117ZM25.6974 59.9915C24.6533 63.0457 21.7165 65.0978 18.3888 65.0978H5.08705C4.7992 65.0978 4.57863 65.0245 4.48304 64.8965C4.38744 64.7679 4.38423 64.5428 4.47449 64.2785L24.8605 4.64117C25.1623 3.75838 26.3126 2.95508 27.2739 2.95508H44.3013C44.5897 2.95508 44.8097 3.02839 44.9053 3.15642C45.0014 3.28497 45.0041 3.51006 44.9139 3.77438L25.6974 59.9915ZM67.3827 64.8965C67.2866 65.0245 67.0666 65.0978 66.7782 65.0978H53.4759C50.1487 65.0978 47.2119 63.0462 46.1684 59.992L37.4376 34.4498L47.3161 5.55082L67.3913 64.2785C67.4815 64.5428 67.4783 64.7679 67.3827 64.8965Z" fill="white"/>
<path d="M22.3391 26.2728C21.5893 26.0338 20.7818 26.4266 20.534 27.1504L15.9294 40.6211C15.6816 41.3454 16.0885 42.1265 16.8373 42.3655C16.9863 42.413 17.1374 42.4357 17.2859 42.4357C17.8856 42.4357 18.4437 42.0681 18.6424 41.4879L23.247 28.0172C23.4948 27.2929 23.0879 26.5118 22.3391 26.2728Z" fill="#F8B41D"/>
<path d="M24.0849 21.1651C23.3357 20.9261 22.5276 21.3189 22.2798 22.0432L22.0678 22.6643C21.82 23.3881 22.227 24.1692 22.9757 24.4087C23.1247 24.4562 23.2758 24.479 23.4243 24.479C24.0241 24.479 24.5821 24.1109 24.7808 23.5306L24.9928 22.9095C25.2406 22.1852 24.8337 21.4046 24.0849 21.1651Z" fill="#F8B41D"/>
</g>
<defs>
<clipPath id="clip0">
<rect width="70" height="67.6667" fill="white" transform="translate(0.870117 0.193115)"/>
</clipPath>
</defs>
</svg>
