<svg width="71" height="71" viewBox="0 0 71 71" fill="none" xmlns="http://www.w3.org/2000/svg">
<g clip-path="url(#clip0)">
<path d="M1.58008 60.8211H69.666V65.9464H1.58008V60.8211Z" fill="#F8B41D"/>
<path d="M35.2812 11.4764L11.0137 25.9626V60.821H59.5488V25.9626L35.2812 11.4764Z" fill="#F7F0EB"/>
<path d="M18.0208 15.4111V5.10745H11.0137V19.5936L18.0208 15.4111Z" fill="#F8B41D"/>
<path d="M49.2402 31.626C48.6307 30.9027 47.8706 30.3214 47.0129 29.9225C46.1553 29.5237 45.2209 29.3171 44.2751 29.3171H43.6954C42.0713 29.3172 40.4688 29.6888 39.0104 30.4035C37.552 31.1182 36.2764 32.157 35.2812 33.4405C34.286 32.157 33.0104 31.1182 31.552 30.4035C30.0937 29.6888 28.4911 29.3172 26.867 29.3171H26.4355C25.5577 29.3075 24.6866 29.4713 23.8723 29.7992C23.058 30.1271 22.3165 30.6126 21.6903 31.2279C20.4967 32.4264 19.8178 34.0433 19.7979 35.7346C19.778 37.4259 20.4186 39.0583 21.5836 40.2847L34.0447 53.396C34.2041 53.5637 34.3959 53.6972 34.6084 53.7884C34.821 53.8797 35.0499 53.9267 35.2812 53.9267C35.5125 53.9267 35.7414 53.8797 35.954 53.7884C36.1666 53.6972 36.3584 53.5637 36.5177 53.396L48.9788 40.2847C50.0801 39.1264 50.7157 37.6028 50.7639 36.0053C50.8122 34.4077 50.2696 32.8485 49.2402 31.626Z" fill="#F8B41D"/>
<path d="M43.9793 40.2147C43.7921 40.2148 43.6089 40.16 43.4525 40.057C43.2962 39.954 43.1735 39.8074 43.0996 39.6354C43.0258 39.4633 43.0041 39.2733 43.0372 39.0891C43.0703 38.9048 43.1568 38.7343 43.2859 38.5986L45.1452 36.6419C45.3496 36.4269 45.4674 36.144 45.4763 35.8475C45.4852 35.551 45.3845 35.2616 45.1934 35.0347C45.11 34.9389 45.0466 34.8274 45.0068 34.7069C44.9669 34.5863 44.9515 34.459 44.9613 34.3324C44.9712 34.2059 45.0061 34.0825 45.0641 33.9695C45.1221 33.8566 45.2019 33.7563 45.2991 33.6745C45.3962 33.5927 45.5086 33.5311 45.6298 33.4932C45.751 33.4553 45.8785 33.4419 46.0049 33.4537C46.1313 33.4656 46.2541 33.5025 46.3661 33.5623C46.4781 33.6221 46.5771 33.7036 46.6574 33.802C47.1517 34.3887 47.4124 35.137 47.3895 35.9039C47.3666 36.6707 47.0617 37.4022 46.5332 37.9583L44.6738 39.915C44.5847 40.0097 44.477 40.0852 44.3576 40.1367C44.2381 40.1883 44.1094 40.2148 43.9793 40.2147Z" fill="#FF3B76"/>
<path d="M69.666 59.8625H60.5059V27.6483L64.3055 29.9162C64.5232 30.0464 64.7836 30.0849 65.0296 30.0234C65.2756 29.9619 65.4872 29.8053 65.618 29.5881L68.4213 24.8926C68.5512 24.6746 68.5892 24.4139 68.5271 24.1678C68.465 23.9218 68.3077 23.7104 68.0899 23.5801L55.864 16.2766C55.646 16.1465 55.3852 16.1083 55.1391 16.1705C54.893 16.2326 54.6816 16.39 54.5515 16.608C54.4214 16.826 54.3832 17.0868 54.4454 17.3329C54.5075 17.579 54.6649 17.7904 54.8829 17.9205L66.2869 24.728L64.4652 27.7801L60.0399 25.1382L35.7718 10.6542C35.6235 10.5656 35.454 10.5188 35.2812 10.5188C35.1085 10.5188 34.939 10.5656 34.7907 10.6542L10.5215 25.1404L6.09727 27.7823L4.27563 24.7302L11.5009 20.417H11.5042L18.5108 16.2329L35.2785 6.22505L41.9378 10.1954C42.1558 10.3255 42.4166 10.3636 42.6627 10.3015C42.9088 10.2393 43.1202 10.082 43.2503 9.86395C43.3804 9.64596 43.4186 9.38521 43.3564 9.13907C43.2943 8.89293 43.1369 8.68156 42.9189 8.55146L35.7718 4.28583C35.6235 4.19724 35.454 4.15046 35.2812 4.15046C35.1085 4.15046 34.939 4.19724 34.7907 4.28583L18.9778 13.7243V5.10669C18.9778 4.85287 18.877 4.60944 18.6975 4.42997C18.518 4.25049 18.2746 4.14966 18.0208 4.14966H11.0137C10.7599 4.14966 10.5164 4.25049 10.337 4.42997C10.1575 4.60944 10.0566 4.85287 10.0566 5.10669V19.052L2.47258 23.5768C2.25477 23.7071 2.09755 23.9185 2.03542 24.1646C1.97328 24.4106 2.01132 24.6713 2.14117 24.8893L4.94336 29.5854C5.07417 29.8026 5.28578 29.9592 5.5318 30.0207C5.77783 30.0822 6.0382 30.0436 6.25586 29.9135L10.0555 27.6456V59.8625H1.58008C1.45431 59.8625 1.32977 59.8873 1.21359 59.9355C1.0974 59.9837 0.991851 60.0543 0.902968 60.1432C0.814086 60.2322 0.743614 60.3379 0.695583 60.4541C0.647552 60.5703 0.622904 60.6949 0.623048 60.8207V65.9465C0.623048 66.2004 0.723877 66.4438 0.903355 66.6233C1.08283 66.8027 1.32626 66.9036 1.58008 66.9036H69.666C69.9198 66.9036 70.1633 66.8027 70.3427 66.6233C70.5222 66.4438 70.623 66.2004 70.623 65.9465V60.8207C70.6232 60.6949 70.5985 60.5703 70.5505 60.4541C70.5025 60.3379 70.432 60.2322 70.3431 60.1432C70.2542 60.0543 70.1487 59.9837 70.0325 59.9355C69.9163 59.8873 69.7918 59.8625 69.666 59.8625ZM11.9707 6.06372H17.0638V14.8684L11.9707 17.909V6.06372ZM11.9707 26.5054L35.2812 12.5907L58.5918 26.5032V59.8625H11.9707V26.5054ZM68.709 64.9895H2.53711V61.7766H68.709V64.9895Z" fill="white"/>
<path d="M47.2004 13.337L49.6198 14.7808C49.7277 14.8469 49.8477 14.8909 49.9728 14.9103C50.0979 14.9297 50.2256 14.9241 50.3485 14.8939C50.4714 14.8636 50.5871 14.8092 50.6888 14.7339C50.7906 14.6586 50.8764 14.5639 50.9413 14.4552C51.0062 14.3465 51.0489 14.226 51.0669 14.1007C51.0849 13.9754 51.0778 13.8478 51.0462 13.7253C51.0145 13.6027 50.9589 13.4876 50.8824 13.3867C50.806 13.2858 50.7103 13.2011 50.6009 13.1374L48.1815 11.6931C48.0736 11.6287 47.954 11.5862 47.8296 11.568C47.7053 11.5498 47.5785 11.5562 47.4566 11.587C47.3348 11.6178 47.2201 11.6723 47.1193 11.7473C47.0185 11.8224 46.9334 11.9166 46.869 12.0246C46.8046 12.1325 46.7621 12.2521 46.7439 12.3764C46.7257 12.5008 46.7321 12.6276 46.7629 12.7494C46.7937 12.8713 46.8481 12.9859 46.9232 13.0868C46.9983 13.1876 47.0925 13.2726 47.2004 13.337Z" fill="#F8B41D"/>
<path d="M43.2859 38.5985C43.1963 38.689 43.1255 38.7965 43.0779 38.9146C43.0303 39.0328 43.0068 39.1593 43.0087 39.2866C43.0106 39.414 43.038 39.5397 43.0891 39.6564C43.1402 39.7731 43.2141 39.8784 43.3065 39.9661C43.3989 40.0539 43.5078 40.1223 43.627 40.1674C43.7461 40.2124 43.8731 40.2333 44.0004 40.2287C44.1277 40.224 44.2528 40.194 44.3683 40.1404C44.4839 40.0868 44.5876 40.0107 44.6734 39.9165L46.5327 37.9598C47.0613 37.4037 47.3662 36.6722 47.3891 35.9054C47.412 35.1385 47.1513 34.3902 46.6569 33.8035C46.578 33.7013 46.4793 33.6161 46.3667 33.553C46.2541 33.4899 46.1298 33.4503 46.0015 33.4364C45.8731 33.4226 45.7433 33.4349 45.6198 33.4726C45.4963 33.5102 45.3818 33.5725 45.283 33.6556C45.1842 33.7387 45.1032 33.8409 45.045 33.9561C44.9867 34.0713 44.9524 34.1971 44.944 34.326C44.9356 34.4548 44.9534 34.584 44.9963 34.7057C45.0392 34.8275 45.1062 34.9394 45.1934 35.0345C45.3849 35.2615 45.4859 35.551 45.4771 35.8478C45.4684 36.1446 45.3504 36.4277 45.1459 36.6429L43.2859 38.5985Z" fill="#FFE9E9"/>
</g>
<defs>
<clipPath id="clip0">
<rect width="70" height="70" fill="white" transform="translate(0.623047 0.526611)"/>
</clipPath>
</defs>
</svg>
