<svg width="239" height="239" viewBox="0 0 239 239" fill="none" xmlns="http://www.w3.org/2000/svg">
<g clip-path="url(#clip0)">
<path opacity="0.2" d="M119.993 221.265C176.059 221.265 221.508 175.815 221.508 119.75C221.508 63.6847 176.059 18.2347 119.993 18.2347C63.9278 18.2347 18.4778 63.6847 18.4778 119.75C18.4778 175.815 63.9278 221.265 119.993 221.265Z" stroke="url(#paint0_linear)" stroke-width="4"/>
<path opacity="0.3" d="M119.993 197.779C163.087 197.779 198.022 162.844 198.022 119.75C198.022 76.6561 163.087 41.7215 119.993 41.7215C76.8992 41.7215 41.9647 76.6561 41.9647 119.75C41.9647 162.844 76.8992 197.779 119.993 197.779Z" stroke="url(#paint1_linear)" stroke-width="4"/>
<path opacity="0.7" d="M120.515 171.682C148.908 171.682 171.925 148.665 171.925 120.272C171.925 91.879 148.908 68.8619 120.515 68.8619C92.1221 68.8619 69.105 91.879 69.105 120.272C69.105 148.665 92.1221 171.682 120.515 171.682Z" stroke="url(#paint2_linear)" stroke-width="4"/>
<path opacity="0.2" d="M119.993 144.542C133.685 144.542 144.785 133.442 144.785 119.75C144.785 106.058 133.685 94.9583 119.993 94.9583C106.301 94.9583 95.2015 106.058 95.2015 119.75C95.2015 133.442 106.301 144.542 119.993 144.542Z" stroke="url(#paint3_linear)" stroke-width="4"/>
<path opacity="0.1" d="M119.993 238.228C185.427 238.228 238.471 185.184 238.471 119.75C238.471 54.3164 185.427 1.27197 119.993 1.27197C54.5595 1.27197 1.51508 54.3164 1.51508 119.75C1.51508 185.184 54.5595 238.228 119.993 238.228Z" stroke="url(#paint4_linear)" stroke-width="4"/>
</g>
<g clip-path="url(#clip1)">
<path d="M88.6805 141.025L65.7368 163.252C62.7399 166.155 62.7637 170.929 65.7896 173.861C68.8155 176.792 73.7433 176.815 76.7402 173.912L99.6841 151.685L88.6805 141.025Z" fill="#F19116"/>
<path d="M80.7944 148.648L88.6679 141.02L99.6697 151.678L91.7961 159.306L80.7944 148.648Z" fill="#F9F9F9"/>
<path d="M121.066 146.422C135.977 146.422 148.065 134.712 148.065 120.267C148.065 105.822 135.977 94.1116 121.066 94.1116C106.155 94.1116 94.0668 105.822 94.0668 120.267C94.0668 134.712 106.155 146.422 121.066 146.422Z" fill="white"/>
<path d="M121.066 128.017C125.484 128.017 129.065 124.547 129.065 120.267C129.065 115.987 125.484 112.518 121.066 112.518C116.648 112.518 113.066 115.987 113.066 120.267C113.066 124.547 116.648 128.017 121.066 128.017Z" fill="#FD8C09"/>
<path d="M188.268 96.7606L174.008 82.9467C174.974 81.4086 175.531 79.6039 175.531 77.6755C175.531 72.0669 170.821 67.504 165.031 67.504C159.242 67.504 154.532 72.0669 154.532 77.6755C154.532 79.6039 155.089 81.4086 156.054 82.9467L148.197 90.5591C140.965 84.3543 131.463 80.5806 121.066 80.5806C110.669 80.5806 101.166 84.3543 93.9345 90.5591L86.0766 82.9467C87.0425 81.4086 87.5993 79.6039 87.5993 77.6755C87.5993 72.0669 82.8892 67.504 77.0997 67.504C71.3101 67.504 66.6001 72.0669 66.6001 77.6755C66.6001 83.2841 71.3101 87.847 77.0997 87.847C79.0903 87.847 80.9533 87.3076 82.541 86.3719L90.3989 93.9843C83.9939 100.99 80.0986 110.195 80.0986 120.268C80.0986 127.615 82.173 134.502 85.7806 140.41L63.9689 161.54C59.9895 165.395 60.0133 171.69 64.0216 175.573C65.9541 177.445 68.5262 178.484 71.2636 178.496H71.3146C74.042 178.496 76.5949 177.477 78.5076 175.625L100.332 154.483C106.417 157.957 113.505 159.954 121.065 159.954C127.817 159.954 134.509 158.329 140.42 155.254C141.637 154.621 142.093 153.153 141.44 151.975C140.787 150.796 139.271 150.354 138.055 150.987C132.869 153.685 126.994 155.11 121.065 155.11C101.233 155.11 85.0984 139.48 85.0984 120.267C85.0984 101.055 101.233 85.4242 121.065 85.4242C130.084 85.4242 138.337 88.6571 144.657 93.9884L140.071 98.4309C134.934 94.2281 128.3 91.6903 121.065 91.6903C104.8 91.6903 91.5664 104.51 91.5664 120.267C91.5664 136.025 104.8 148.844 121.065 148.844C137.331 148.844 150.564 136.025 150.564 120.267C150.564 113.259 147.945 106.833 143.606 101.856L148.192 97.4133C153.695 103.536 157.032 111.531 157.032 120.267C157.032 126.01 155.56 131.702 152.776 136.726C152.123 137.905 152.579 139.373 153.796 140.006C155.012 140.638 156.527 140.196 157.181 139.018C160.355 133.291 162.032 126.807 162.032 120.267C162.032 110.195 158.137 100.99 151.732 93.984L159.59 86.3716C161.178 87.3074 163.04 87.8467 165.031 87.8467C167.022 87.8467 168.885 87.3074 170.472 86.3716L184.732 100.185C185.22 100.658 185.86 100.895 186.5 100.895C187.139 100.895 187.779 100.658 188.267 100.185C189.244 99.2398 189.244 97.7063 188.268 96.7606ZM74.9725 172.2C73.9985 173.143 72.6981 173.654 71.2881 173.653C69.8769 173.646 68.5522 173.112 67.5575 172.149C65.4986 170.154 65.4748 166.931 67.5048 164.965L80.806 152.079L88.274 159.314L74.9725 172.2ZM96.113 151.72L91.8094 155.889L84.3414 148.654L88.639 144.491C90.7999 147.2 93.3136 149.631 96.113 151.72ZM71.6001 77.6755C71.6001 74.7376 74.0673 72.3475 77.0999 72.3475C80.1325 72.3475 82.5997 74.7376 82.5997 77.6755C82.5997 80.6133 80.1325 83.0034 77.0999 83.0034C74.0673 83.0034 71.6001 80.6133 71.6001 77.6755ZM136.523 101.868L126.507 111.571C124.919 110.635 123.056 110.096 121.066 110.096C119.075 110.096 117.212 110.635 115.624 111.571L105.609 101.868C109.828 98.5355 115.21 96.5339 121.066 96.5339C126.922 96.5339 132.303 98.5358 136.523 101.868ZM121.066 114.939C124.098 114.939 126.565 117.33 126.565 120.267C126.565 123.205 124.098 125.595 121.066 125.595C118.033 125.595 115.566 123.205 115.566 120.267C115.566 117.33 118.033 114.939 121.066 114.939ZM121.066 144.001C107.557 144.001 96.5664 133.354 96.5664 120.267C96.5664 114.594 98.6326 109.381 102.073 105.294L112.089 114.996C111.123 116.534 110.566 118.339 110.566 120.267C110.566 125.876 115.276 130.439 121.066 130.439C126.855 130.439 131.565 125.876 131.565 120.267C131.565 118.339 131.008 116.534 130.042 114.996L140.058 105.294C143.498 109.381 145.565 114.595 145.565 120.267C145.565 133.354 134.575 144.001 121.066 144.001ZM159.532 77.6755C159.532 74.7376 161.999 72.3475 165.032 72.3475C168.064 72.3475 170.531 74.7376 170.531 77.6755C170.531 80.6133 168.064 83.0034 165.032 83.0034C161.999 83.0034 159.532 80.6133 159.532 77.6755Z" fill="#0C78D0"/>
<path d="M148.266 144.196C147.609 144.196 146.964 144.455 146.499 144.906C146.034 145.356 145.766 145.981 145.766 146.618C145.766 147.255 146.034 147.879 146.499 148.33C146.964 148.78 147.609 149.039 148.266 149.039C148.924 149.039 149.569 148.781 150.034 148.33C150.499 147.879 150.766 147.255 150.766 146.618C150.766 145.981 150.499 145.356 150.034 144.906C149.569 144.455 148.924 144.196 148.266 144.196Z" fill="#FD8C09"/>
</g>
<defs>
<linearGradient id="paint0_linear" x1="28.5274" y1="154.642" x2="248.714" y2="43.4352" gradientUnits="userSpaceOnUse">
<stop stop-color="white"/>
<stop offset="1" stop-color="white"/>
</linearGradient>
<linearGradient id="paint1_linear" x1="49.6892" y1="146.569" x2="218.933" y2="61.0915" gradientUnits="userSpaceOnUse">
<stop stop-color="white"/>
<stop offset="1" stop-color="white"/>
</linearGradient>
<linearGradient id="paint2_linear" x1="74.1944" y1="137.942" x2="185.703" y2="81.6241" gradientUnits="userSpaceOnUse">
<stop stop-color="white"/>
<stop offset="1" stop-color="white"/>
</linearGradient>
<linearGradient id="paint3_linear" x1="97.6557" y1="128.271" x2="151.429" y2="101.113" gradientUnits="userSpaceOnUse">
<stop stop-color="white"/>
<stop offset="1" stop-color="white"/>
</linearGradient>
<linearGradient id="paint4_linear" x1="13.2439" y1="160.472" x2="270.222" y2="30.6833" gradientUnits="userSpaceOnUse">
<stop stop-color="white"/>
<stop offset="1" stop-color="white"/>
</linearGradient>
<clipPath id="clip0">
<rect width="238" height="238" fill="white" transform="translate(0.993164 0.75)"/>
</clipPath>
<clipPath id="clip1">
<rect width="128" height="124" fill="white" transform="translate(61 61)"/>
</clipPath>
</defs>
</svg>
